  0
SECTION
  2
HEADER
  9
$ACADVER
  1
AC1009
  9
$FILLMODE
 70
 0
  9
$SPLFRAME
 70
 1
  9
$EXTMIN
 10
0
 20
0
 30
0.0
  9
$EXTMAX
 10
1058.33
 20
1058.33
 30
0.0
  0
ENDSEC
  0
SECTION
  2
TABLES
  0
TABLE
  2
LAYER
 70
1
  0
LAYER
  2
0
 70
     0
 62
     7
  6
CONTINUOUS
  0
ENDTAB
  0
ENDSEC
  0
SECTION
  2
ENTITIES
  0
LINE
  8
0
 62
     0
 10
88.2964
 20
135.371
 30
0.0
 11
88.6093
 21
135.359
 31
0.0
  0
LINE
  8
0
 62
     0
 10
88.6093
 20
135.359
 30
0.0
 11
88.9222
 21
135.322
 31
0.0
  0
LINE
  8
0
 62
     0
 10
88.9222
 20
135.322
 30
0.0
 11
89.2295
 21
135.261
 31
0.0
  0
LINE
  8
0
 62
     0
 10
89.2295
 20
135.261
 30
0.0
 11
89.5325
 21
135.176
 31
0.0
  0
LINE
  8
0
 62
     0
 10
89.5325
 20
135.176
 30
0.0
 11
89.826
 21
135.067
 31
0.0
  0
LINE
  8
0
 62
     0
 10
89.826
 20
135.067
 30
0.0
 11
90.1114
 21
134.936
 31
0.0
  0
LINE
  8
0
 62
     0
 10
90.1114
 20
134.936
 30
0.0
 11
90.3855
 21
134.782
 31
0.0
  0
LINE
  8
0
 62
     0
 10
90.3855
 20
134.782
 30
0.0
 11
90.6473
 21
134.608
 31
0.0
  0
LINE
  8
0
 62
     0
 10
90.6473
 20
134.608
 30
0.0
 11
90.8939
 21
134.414
 31
0.0
  0
LINE
  8
0
 62
     0
 10
90.8939
 20
134.414
 30
0.0
 11
91.1243
 21
134.2
 31
0.0
  0
LINE
  8
0
 62
     0
 10
91.1243
 20
134.2
 30
0.0
 11
91.3377
 21
133.969
 31
0.0
  0
LINE
  8
0
 62
     0
 10
91.3377
 20
133.969
 30
0.0
 11
91.5321
 21
133.724
 31
0.0
  0
LINE
  8
0
 62
     0
 10
91.5321
 20
133.724
 30
0.0
 11
91.7071
 21
133.461
 31
0.0
  0
LINE
  8
0
 62
     0
 10
91.7071
 20
133.461
 30
0.0
 11
91.8602
 21
133.187
 31
0.0
  0
LINE
  8
0
 62
     0
 10
91.8602
 20
133.187
 30
0.0
 11
91.991
 21
132.902
 31
0.0
  0
LINE
  8
0
 62
     0
 10
91.991
 20
132.902
 30
0.0
 11
92.0997
 21
132.608
 31
0.0
  0
LINE
  8
0
 62
     0
 10
92.0997
 20
132.608
 30
0.0
 11
92.1854
 21
132.305
 31
0.0
  0
LINE
  8
0
 62
     0
 10
92.1854
 20
132.305
 30
0.0
 11
92.2457
 21
131.997
 31
0.0
  0
LINE
  8
0
 62
     0
 10
92.2457
 20
131.997
 30
0.0
 11
92.2831
 21
131.685
 31
0.0
  0
LINE
  8
0
 62
     0
 10
92.2831
 20
131.685
 30
0.0
 11
92.2969
 21
131.371
 31
0.0
  0
LINE
  8
0
 62
     0
 10
92.2969
 20
131.371
 30
0.0
 11
92.2969
 21
4.30773
 31
0.0
  0
LINE
  8
0
 62
     0
 10
92.2969
 20
4.30773
 30
0.0
 11
92.2831
 21
3.99355
 31
0.0
  0
LINE
  8
0
 62
     0
 10
92.2831
 20
3.99355
 30
0.0
 11
92.2457
 21
3.68212
 31
0.0
  0
LINE
  8
0
 62
     0
 10
92.2457
 20
3.68212
 30
0.0
 11
92.1854
 21
3.37482
 31
0.0
  0
LINE
  8
0
 62
     0
 10
92.1854
 20
3.37482
 30
0.0
 11
92.0997
 21
3.07165
 31
0.0
  0
LINE
  8
0
 62
     0
 10
92.0997
 20
3.07165
 30
0.0
 11
91.991
 21
2.77675
 31
0.0
  0
LINE
  8
0
 62
     0
 10
91.991
 20
2.77675
 30
0.0
 11
91.8602
 21
2.49149
 31
0.0
  0
LINE
  8
0
 62
     0
 10
91.8602
 20
2.49149
 30
0.0
 11
91.7071
 21
2.21864
 31
0.0
  0
LINE
  8
0
 62
     0
 10
91.7071
 20
2.21864
 30
0.0
 11
91.5321
 21
1.95682
 31
0.0
  0
LINE
  8
0
 62
     0
 10
91.5321
 20
1.95682
 30
0.0
 11
91.3377
 21
1.71015
 31
0.0
  0
LINE
  8
0
 62
     0
 10
91.3377
 20
1.71015
 30
0.0
 11
91.1243
 21
1.48001
 31
0.0
  0
LINE
  8
0
 62
     0
 10
91.1243
 20
1.48001
 30
0.0
 11
90.8939
 21
1.26642
 31
0.0
  0
LINE
  8
0
 62
     0
 10
90.8939
 20
1.26642
 30
0.0
 11
90.6473
 21
1.07211
 31
0.0
  0
LINE
  8
0
 62
     0
 10
90.6473
 20
1.07211
 30
0.0
 11
90.3855
 21
0.897103
 31
0.0
  0
LINE
  8
0
 62
     0
 10
90.3855
 20
0.897103
 30
0.0
 11
90.1114
 21
0.744142
 31
0.0
  0
LINE
  8
0
 62
     0
 10
90.1114
 20
0.744142
 30
0.0
 11
89.826
 21
0.611851
 31
0.0
  0
LINE
  8
0
 62
     0
 10
89.826
 20
0.611851
 30
0.0
 11
89.5325
 21
0.504363
 31
0.0
  0
LINE
  8
0
 62
     0
 10
89.5325
 20
0.504363
 30
0.0
 11
89.2295
 21
0.418924
 31
0.0
  0
LINE
  8
0
 62
     0
 10
89.2295
 20
0.418924
 30
0.0
 11
88.9222
 21
0.356912
 31
0.0
  0
LINE
  8
0
 62
     0
 10
88.9222
 20
0.356912
 30
0.0
 11
88.6093
 21
0.319705
 31
0.0
  0
LINE
  8
0
 62
     0
 10
88.6093
 20
0.319705
 30
0.0
 11
88.2964
 21
0.308681
 31
0.0
  0
LINE
  8
0
 62
     0
 10
88.2964
 20
0.308681
 30
0.0
 11
4.09554
 21
0.308681
 31
0.0
  0
LINE
  8
0
 62
     0
 10
4.09554
 20
0.308681
 30
0.0
 11
3.78135
 21
0.319705
 31
0.0
  0
LINE
  8
0
 62
     0
 10
3.78135
 20
0.319705
 30
0.0
 11
3.4699
 21
0.356912
 31
0.0
  0
LINE
  8
0
 62
     0
 10
3.4699
 20
0.356912
 30
0.0
 11
3.16122
 21
0.418924
 31
0.0
  0
LINE
  8
0
 62
     0
 10
3.16122
 20
0.418924
 30
0.0
 11
2.85805
 21
0.504363
 31
0.0
  0
LINE
  8
0
 62
     0
 10
2.85805
 20
0.504363
 30
0.0
 11
2.56453
 21
0.611851
 31
0.0
  0
LINE
  8
0
 62
     0
 10
2.56453
 20
0.611851
 30
0.0
 11
2.27928
 21
0.744142
 31
0.0
  0
LINE
  8
0
 62
     0
 10
2.27928
 20
0.744142
 30
0.0
 11
2.00504
 21
0.897103
 31
0.0
  0
LINE
  8
0
 62
     0
 10
2.00504
 20
0.897103
 30
0.0
 11
1.74322
 21
1.07211
 31
0.0
  0
LINE
  8
0
 62
     0
 10
1.74322
 20
1.07211
 30
0.0
 11
1.49793
 21
1.26642
 31
0.0
  0
LINE
  8
0
 62
     0
 10
1.49793
 20
1.26642
 30
0.0
 11
1.26642
 21
1.48001
 31
0.0
  0
LINE
  8
0
 62
     0
 10
1.26642
 20
1.48001
 30
0.0
 11
1.05282
 21
1.71015
 31
0.0
  0
LINE
  8
0
 62
     0
 10
1.05282
 20
1.71015
 30
0.0
 11
0.858516
 21
1.95682
 31
0.0
  0
LINE
  8
0
 62
     0
 10
0.858516
 20
1.95682
 30
0.0
 11
0.684886
 21
2.21864
 31
0.0
  0
LINE
  8
0
 62
     0
 10
0.684886
 20
2.21864
 30
0.0
 11
0.530546
 21
2.49149
 31
0.0
  0
LINE
  8
0
 62
     0
 10
0.530546
 20
2.49149
 30
0.0
 11
0.39963
 21
2.77675
 31
0.0
  0
LINE
  8
0
 62
     0
 10
0.39963
 20
2.77675
 30
0.0
 11
0.290766
 21
3.07165
 31
0.0
  0
LINE
  8
0
 62
     0
 10
0.290766
 20
3.07165
 30
0.0
 11
0.205328
 21
3.37482
 31
0.0
  0
LINE
  8
0
 62
     0
 10
0.205328
 20
3.37482
 30
0.0
 11
0.144694
 21
3.68212
 31
0.0
  0
LINE
  8
0
 62
     0
 10
0.144694
 20
3.68212
 30
0.0
 11
0.107487
 21
3.99355
 31
0.0
  0
LINE
  8
0
 62
     0
 10
0.107487
 20
3.99355
 30
0.0
 11
0.0950846
 21
4.30773
 31
0.0
  0
LINE
  8
0
 62
     0
 10
0.0950846
 20
4.30773
 30
0.0
 11
0.0950846
 21
131.371
 31
0.0
  0
LINE
  8
0
 62
     0
 10
0.0950846
 20
131.371
 30
0.0
 11
0.107487
 21
131.685
 31
0.0
  0
LINE
  8
0
 62
     0
 10
0.107487
 20
131.685
 30
0.0
 11
0.144694
 21
131.997
 31
0.0
  0
LINE
  8
0
 62
     0
 10
0.144694
 20
131.997
 30
0.0
 11
0.205328
 21
132.305
 31
0.0
  0
LINE
  8
0
 62
     0
 10
0.205328
 20
132.305
 30
0.0
 11
0.290766
 21
132.608
 31
0.0
  0
LINE
  8
0
 62
     0
 10
0.290766
 20
132.608
 30
0.0
 11
0.39963
 21
132.902
 31
0.0
  0
LINE
  8
0
 62
     0
 10
0.39963
 20
132.902
 30
0.0
 11
0.530546
 21
133.187
 31
0.0
  0
LINE
  8
0
 62
     0
 10
0.530546
 20
133.187
 30
0.0
 11
0.684886
 21
133.461
 31
0.0
  0
LINE
  8
0
 62
     0
 10
0.684886
 20
133.461
 30
0.0
 11
0.858516
 21
133.724
 31
0.0
  0
LINE
  8
0
 62
     0
 10
0.858516
 20
133.724
 30
0.0
 11
1.05282
 21
133.969
 31
0.0
  0
LINE
  8
0
 62
     0
 10
1.05282
 20
133.969
 30
0.0
 11
1.26642
 21
134.2
 31
0.0
  0
LINE
  8
0
 62
     0
 10
1.26642
 20
134.2
 30
0.0
 11
1.49793
 21
134.414
 31
0.0
  0
LINE
  8
0
 62
     0
 10
1.49793
 20
134.414
 30
0.0
 11
1.74322
 21
134.608
 31
0.0
  0
LINE
  8
0
 62
     0
 10
1.74322
 20
134.608
 30
0.0
 11
2.00504
 21
134.782
 31
0.0
  0
LINE
  8
0
 62
     0
 10
2.00504
 20
134.782
 30
0.0
 11
2.27928
 21
134.936
 31
0.0
  0
LINE
  8
0
 62
     0
 10
2.27928
 20
134.936
 30
0.0
 11
2.56453
 21
135.067
 31
0.0
  0
LINE
  8
0
 62
     0
 10
2.56453
 20
135.067
 30
0.0
 11
2.85805
 21
135.176
 31
0.0
  0
LINE
  8
0
 62
     0
 10
2.85805
 20
135.176
 30
0.0
 11
3.16122
 21
135.261
 31
0.0
  0
LINE
  8
0
 62
     0
 10
3.16122
 20
135.261
 30
0.0
 11
3.4699
 21
135.322
 31
0.0
  0
LINE
  8
0
 62
     0
 10
3.4699
 20
135.322
 30
0.0
 11
3.78135
 21
135.359
 31
0.0
  0
LINE
  8
0
 62
     0
 10
3.78135
 20
135.359
 30
0.0
 11
4.09554
 21
135.371
 31
0.0
  0
LINE
  8
0
 62
     0
 10
4.09554
 20
135.371
 30
0.0
 11
88.2964
 21
135.371
 31
0.0
  0
LINE
  8
0
 62
     0
 10
87.8018
 20
5.83046
 30
0.0
 11
87.3552
 21
5.60172
 31
0.0
  0
LINE
  8
0
 62
     0
 10
87.3552
 20
5.60172
 30
0.0
 11
87.001
 21
5.24757
 31
0.0
  0
LINE
  8
0
 62
     0
 10
87.001
 20
5.24757
 30
0.0
 11
86.7752
 21
4.80247
 31
0.0
  0
LINE
  8
0
 62
     0
 10
86.7752
 20
4.80247
 30
0.0
 11
86.6965
 21
4.30773
 31
0.0
  0
LINE
  8
0
 62
     0
 10
86.6965
 20
4.30773
 30
0.0
 11
86.7752
 21
3.81441
 31
0.0
  0
LINE
  8
0
 62
     0
 10
86.7752
 20
3.81441
 30
0.0
 11
87.001
 21
3.36793
 31
0.0
  0
LINE
  8
0
 62
     0
 10
87.001
 20
3.36793
 30
0.0
 11
87.3552
 21
3.01377
 31
0.0
  0
LINE
  8
0
 62
     0
 10
87.3552
 20
3.01377
 30
0.0
 11
87.8018
 21
2.78639
 31
0.0
  0
LINE
  8
0
 62
     0
 10
87.8018
 20
2.78639
 30
0.0
 11
88.2964
 21
2.70784
 31
0.0
  0
LINE
  8
0
 62
     0
 10
88.2964
 20
2.70784
 30
0.0
 11
88.791
 21
2.78639
 31
0.0
  0
LINE
  8
0
 62
     0
 10
88.791
 20
2.78639
 30
0.0
 11
89.2362
 21
3.01377
 31
0.0
  0
LINE
  8
0
 62
     0
 10
89.2362
 20
3.01377
 30
0.0
 11
89.5904
 21
3.36793
 31
0.0
  0
LINE
  8
0
 62
     0
 10
89.5904
 20
3.36793
 30
0.0
 11
89.8179
 21
3.81441
 31
0.0
  0
LINE
  8
0
 62
     0
 10
89.8179
 20
3.81441
 30
0.0
 11
89.8962
 21
4.30773
 31
0.0
  0
LINE
  8
0
 62
     0
 10
89.8962
 20
4.30773
 30
0.0
 11
89.8179
 21
4.80247
 31
0.0
  0
LINE
  8
0
 62
     0
 10
89.8179
 20
4.80247
 30
0.0
 11
89.5904
 21
5.24757
 31
0.0
  0
LINE
  8
0
 62
     0
 10
89.5904
 20
5.24757
 30
0.0
 11
89.2362
 21
5.60172
 31
0.0
  0
LINE
  8
0
 62
     0
 10
89.2362
 20
5.60172
 30
0.0
 11
88.791
 21
5.83046
 31
0.0
  0
LINE
  8
0
 62
     0
 10
88.791
 20
5.83046
 30
0.0
 11
88.2964
 21
5.90765
 31
0.0
  0
LINE
  8
0
 62
     0
 10
88.2964
 20
5.90765
 30
0.0
 11
87.8018
 21
5.83046
 31
0.0
  0
LINE
  8
0
 62
     0
 10
3.6008
 20
5.83046
 30
0.0
 11
3.15295
 21
5.60172
 31
0.0
  0
LINE
  8
0
 62
     0
 10
3.15295
 20
5.60172
 30
0.0
 11
2.80017
 21
5.24757
 31
0.0
  0
LINE
  8
0
 62
     0
 10
2.80017
 20
5.24757
 30
0.0
 11
2.57418
 21
4.80247
 31
0.0
  0
LINE
  8
0
 62
     0
 10
2.57418
 20
4.80247
 30
0.0
 11
2.49425
 21
4.30773
 31
0.0
  0
LINE
  8
0
 62
     0
 10
2.49425
 20
4.30773
 30
0.0
 11
2.57418
 21
3.81441
 31
0.0
  0
LINE
  8
0
 62
     0
 10
2.57418
 20
3.81441
 30
0.0
 11
2.80017
 21
3.36793
 31
0.0
  0
LINE
  8
0
 62
     0
 10
2.80017
 20
3.36793
 30
0.0
 11
3.15295
 21
3.01377
 31
0.0
  0
LINE
  8
0
 62
     0
 10
3.15295
 20
3.01377
 30
0.0
 11
3.6008
 21
2.78639
 31
0.0
  0
LINE
  8
0
 62
     0
 10
3.6008
 20
2.78639
 30
0.0
 11
4.09554
 21
2.70784
 31
0.0
  0
LINE
  8
0
 62
     0
 10
4.09554
 20
2.70784
 30
0.0
 11
4.58886
 21
2.78639
 31
0.0
  0
LINE
  8
0
 62
     0
 10
4.58886
 20
2.78639
 30
0.0
 11
5.03534
 21
3.01377
 31
0.0
  0
LINE
  8
0
 62
     0
 10
5.03534
 20
3.01377
 30
0.0
 11
5.38949
 21
3.36793
 31
0.0
  0
LINE
  8
0
 62
     0
 10
5.38949
 20
3.36793
 30
0.0
 11
5.61689
 21
3.81441
 31
0.0
  0
LINE
  8
0
 62
     0
 10
5.61689
 20
3.81441
 30
0.0
 11
5.69542
 21
4.30773
 31
0.0
  0
LINE
  8
0
 62
     0
 10
5.69542
 20
4.30773
 30
0.0
 11
5.61689
 21
4.80247
 31
0.0
  0
LINE
  8
0
 62
     0
 10
5.61689
 20
4.80247
 30
0.0
 11
5.38949
 21
5.24757
 31
0.0
  0
LINE
  8
0
 62
     0
 10
5.38949
 20
5.24757
 30
0.0
 11
5.03534
 21
5.60172
 31
0.0
  0
LINE
  8
0
 62
     0
 10
5.03534
 20
5.60172
 30
0.0
 11
4.58886
 21
5.83046
 31
0.0
  0
LINE
  8
0
 62
     0
 10
4.58886
 20
5.83046
 30
0.0
 11
4.09554
 21
5.90765
 31
0.0
  0
LINE
  8
0
 62
     0
 10
4.09554
 20
5.90765
 30
0.0
 11
3.6008
 21
5.83046
 31
0.0
  0
LINE
  8
0
 62
     0
 10
8.09597
 20
127.371
 30
0.0
 11
84.2959
 21
127.371
 31
0.0
  0
LINE
  8
0
 62
     0
 10
84.2959
 20
127.371
 30
0.0
 11
84.2959
 21
8.3082
 31
0.0
  0
LINE
  8
0
 62
     0
 10
84.2959
 20
8.3082
 30
0.0
 11
8.09597
 21
8.3082
 31
0.0
  0
LINE
  8
0
 62
     0
 10
8.09597
 20
8.3082
 30
0.0
 11
8.09597
 21
127.371
 31
0.0
  0
LINE
  8
0
 62
     0
 10
87.8018
 20
69.3607
 30
0.0
 11
87.3552
 21
69.1349
 31
0.0
  0
LINE
  8
0
 62
     0
 10
87.3552
 20
69.1349
 30
0.0
 11
87.001
 21
68.7807
 31
0.0
  0
LINE
  8
0
 62
     0
 10
87.001
 20
68.7807
 30
0.0
 11
86.7752
 21
68.3341
 31
0.0
  0
LINE
  8
0
 62
     0
 10
86.7752
 20
68.3341
 30
0.0
 11
86.6965
 21
67.8409
 31
0.0
  0
LINE
  8
0
 62
     0
 10
86.6965
 20
67.8409
 30
0.0
 11
86.7752
 21
67.3446
 31
0.0
  0
LINE
  8
0
 62
     0
 10
86.7752
 20
67.3446
 30
0.0
 11
87.001
 21
66.8997
 31
0.0
  0
LINE
  8
0
 62
     0
 10
87.001
 20
66.8997
 30
0.0
 11
87.3552
 21
66.5455
 31
0.0
  0
LINE
  8
0
 62
     0
 10
87.3552
 20
66.5455
 30
0.0
 11
87.8018
 21
66.318
 31
0.0
  0
LINE
  8
0
 62
     0
 10
87.8018
 20
66.318
 30
0.0
 11
88.2964
 21
66.2397
 31
0.0
  0
LINE
  8
0
 62
     0
 10
88.2964
 20
66.2397
 30
0.0
 11
88.791
 21
66.318
 31
0.0
  0
LINE
  8
0
 62
     0
 10
88.791
 20
66.318
 30
0.0
 11
89.2362
 21
66.5455
 31
0.0
  0
LINE
  8
0
 62
     0
 10
89.2362
 20
66.5455
 30
0.0
 11
89.5904
 21
66.8997
 31
0.0
  0
LINE
  8
0
 62
     0
 10
89.5904
 20
66.8997
 30
0.0
 11
89.8179
 21
67.3446
 31
0.0
  0
LINE
  8
0
 62
     0
 10
89.8179
 20
67.3446
 30
0.0
 11
89.8962
 21
67.8409
 31
0.0
  0
LINE
  8
0
 62
     0
 10
89.8962
 20
67.8409
 30
0.0
 11
89.8179
 21
68.3341
 31
0.0
  0
LINE
  8
0
 62
     0
 10
89.8179
 20
68.3341
 30
0.0
 11
89.5904
 21
68.7807
 31
0.0
  0
LINE
  8
0
 62
     0
 10
89.5904
 20
68.7807
 30
0.0
 11
89.2362
 21
69.1349
 31
0.0
  0
LINE
  8
0
 62
     0
 10
89.2362
 20
69.1349
 30
0.0
 11
88.791
 21
69.3607
 31
0.0
  0
LINE
  8
0
 62
     0
 10
88.791
 20
69.3607
 30
0.0
 11
88.2964
 21
69.4408
 31
0.0
  0
LINE
  8
0
 62
     0
 10
88.2964
 20
69.4408
 30
0.0
 11
87.8018
 21
69.3607
 31
0.0
  0
LINE
  8
0
 62
     0
 10
3.6008
 20
69.3607
 30
0.0
 11
3.15295
 21
69.1349
 31
0.0
  0
LINE
  8
0
 62
     0
 10
3.15295
 20
69.1349
 30
0.0
 11
2.80017
 21
68.7807
 31
0.0
  0
LINE
  8
0
 62
     0
 10
2.80017
 20
68.7807
 30
0.0
 11
2.57418
 21
68.3341
 31
0.0
  0
LINE
  8
0
 62
     0
 10
2.57418
 20
68.3341
 30
0.0
 11
2.49425
 21
67.8409
 31
0.0
  0
LINE
  8
0
 62
     0
 10
2.49425
 20
67.8409
 30
0.0
 11
2.57418
 21
67.3446
 31
0.0
  0
LINE
  8
0
 62
     0
 10
2.57418
 20
67.3446
 30
0.0
 11
2.80017
 21
66.8997
 31
0.0
  0
LINE
  8
0
 62
     0
 10
2.80017
 20
66.8997
 30
0.0
 11
3.15295
 21
66.5455
 31
0.0
  0
LINE
  8
0
 62
     0
 10
3.15295
 20
66.5455
 30
0.0
 11
3.6008
 21
66.318
 31
0.0
  0
LINE
  8
0
 62
     0
 10
3.6008
 20
66.318
 30
0.0
 11
4.09554
 21
66.2397
 31
0.0
  0
LINE
  8
0
 62
     0
 10
4.09554
 20
66.2397
 30
0.0
 11
4.58886
 21
66.318
 31
0.0
  0
LINE
  8
0
 62
     0
 10
4.58886
 20
66.318
 30
0.0
 11
5.03534
 21
66.5455
 31
0.0
  0
LINE
  8
0
 62
     0
 10
5.03534
 20
66.5455
 30
0.0
 11
5.38949
 21
66.8997
 31
0.0
  0
LINE
  8
0
 62
     0
 10
5.38949
 20
66.8997
 30
0.0
 11
5.61689
 21
67.3446
 31
0.0
  0
LINE
  8
0
 62
     0
 10
5.61689
 20
67.3446
 30
0.0
 11
5.69542
 21
67.8409
 31
0.0
  0
LINE
  8
0
 62
     0
 10
5.69542
 20
67.8409
 30
0.0
 11
5.61689
 21
68.3341
 31
0.0
  0
LINE
  8
0
 62
     0
 10
5.61689
 20
68.3341
 30
0.0
 11
5.38949
 21
68.7807
 31
0.0
  0
LINE
  8
0
 62
     0
 10
5.38949
 20
68.7807
 30
0.0
 11
5.03534
 21
69.1349
 31
0.0
  0
LINE
  8
0
 62
     0
 10
5.03534
 20
69.1349
 30
0.0
 11
4.58886
 21
69.3607
 31
0.0
  0
LINE
  8
0
 62
     0
 10
4.58886
 20
69.3607
 30
0.0
 11
4.09554
 21
69.4408
 31
0.0
  0
LINE
  8
0
 62
     0
 10
4.09554
 20
69.4408
 30
0.0
 11
3.6008
 21
69.3607
 31
0.0
  0
LINE
  8
0
 62
     0
 10
87.8018
 20
132.892
 30
0.0
 11
87.3552
 21
132.667
 31
0.0
  0
LINE
  8
0
 62
     0
 10
87.3552
 20
132.667
 30
0.0
 11
87.001
 21
132.314
 31
0.0
  0
LINE
  8
0
 62
     0
 10
87.001
 20
132.314
 30
0.0
 11
86.7752
 21
131.866
 31
0.0
  0
LINE
  8
0
 62
     0
 10
86.7752
 20
131.866
 30
0.0
 11
86.6965
 21
131.371
 31
0.0
  0
LINE
  8
0
 62
     0
 10
86.6965
 20
131.371
 30
0.0
 11
86.7752
 21
130.878
 31
0.0
  0
LINE
  8
0
 62
     0
 10
86.7752
 20
130.878
 30
0.0
 11
87.001
 21
130.431
 31
0.0
  0
LINE
  8
0
 62
     0
 10
87.001
 20
130.431
 30
0.0
 11
87.3552
 21
130.077
 31
0.0
  0
LINE
  8
0
 62
     0
 10
87.3552
 20
130.077
 30
0.0
 11
87.8018
 21
129.85
 31
0.0
  0
LINE
  8
0
 62
     0
 10
87.8018
 20
129.85
 30
0.0
 11
88.2964
 21
129.771
 31
0.0
  0
LINE
  8
0
 62
     0
 10
88.2964
 20
129.771
 30
0.0
 11
88.791
 21
129.85
 31
0.0
  0
LINE
  8
0
 62
     0
 10
88.791
 20
129.85
 30
0.0
 11
89.2362
 21
130.077
 31
0.0
  0
LINE
  8
0
 62
     0
 10
89.2362
 20
130.077
 30
0.0
 11
89.5904
 21
130.431
 31
0.0
  0
LINE
  8
0
 62
     0
 10
89.5904
 20
130.431
 30
0.0
 11
89.8179
 21
130.878
 31
0.0
  0
LINE
  8
0
 62
     0
 10
89.8179
 20
130.878
 30
0.0
 11
89.8962
 21
131.371
 31
0.0
  0
LINE
  8
0
 62
     0
 10
89.8962
 20
131.371
 30
0.0
 11
89.8179
 21
131.866
 31
0.0
  0
LINE
  8
0
 62
     0
 10
89.8179
 20
131.866
 30
0.0
 11
89.5904
 21
132.314
 31
0.0
  0
LINE
  8
0
 62
     0
 10
89.5904
 20
132.314
 30
0.0
 11
89.2362
 21
132.667
 31
0.0
  0
LINE
  8
0
 62
     0
 10
89.2362
 20
132.667
 30
0.0
 11
88.791
 21
132.892
 31
0.0
  0
LINE
  8
0
 62
     0
 10
88.791
 20
132.892
 30
0.0
 11
88.2964
 21
132.971
 31
0.0
  0
LINE
  8
0
 62
     0
 10
88.2964
 20
132.971
 30
0.0
 11
87.8018
 21
132.892
 31
0.0
  0
LINE
  8
0
 62
     0
 10
3.6008
 20
132.892
 30
0.0
 11
3.15295
 21
132.667
 31
0.0
  0
LINE
  8
0
 62
     0
 10
3.15295
 20
132.667
 30
0.0
 11
2.80017
 21
132.314
 31
0.0
  0
LINE
  8
0
 62
     0
 10
2.80017
 20
132.314
 30
0.0
 11
2.57418
 21
131.866
 31
0.0
  0
LINE
  8
0
 62
     0
 10
2.57418
 20
131.866
 30
0.0
 11
2.49425
 21
131.371
 31
0.0
  0
LINE
  8
0
 62
     0
 10
2.49425
 20
131.371
 30
0.0
 11
2.57418
 21
130.878
 31
0.0
  0
LINE
  8
0
 62
     0
 10
2.57418
 20
130.878
 30
0.0
 11
2.80017
 21
130.431
 31
0.0
  0
LINE
  8
0
 62
     0
 10
2.80017
 20
130.431
 30
0.0
 11
3.15295
 21
130.077
 31
0.0
  0
LINE
  8
0
 62
     0
 10
3.15295
 20
130.077
 30
0.0
 11
3.6008
 21
129.85
 31
0.0
  0
LINE
  8
0
 62
     0
 10
3.6008
 20
129.85
 30
0.0
 11
4.09554
 21
129.771
 31
0.0
  0
LINE
  8
0
 62
     0
 10
4.09554
 20
129.771
 30
0.0
 11
4.58886
 21
129.85
 31
0.0
  0
LINE
  8
0
 62
     0
 10
4.58886
 20
129.85
 30
0.0
 11
5.03534
 21
130.077
 31
0.0
  0
LINE
  8
0
 62
     0
 10
5.03534
 20
130.077
 30
0.0
 11
5.38949
 21
130.431
 31
0.0
  0
LINE
  8
0
 62
     0
 10
5.38949
 20
130.431
 30
0.0
 11
5.61689
 21
130.878
 31
0.0
  0
LINE
  8
0
 62
     0
 10
5.61689
 20
130.878
 30
0.0
 11
5.69542
 21
131.371
 31
0.0
  0
LINE
  8
0
 62
     0
 10
5.69542
 20
131.371
 30
0.0
 11
5.61689
 21
131.866
 31
0.0
  0
LINE
  8
0
 62
     0
 10
5.61689
 20
131.866
 30
0.0
 11
5.38949
 21
132.314
 31
0.0
  0
LINE
  8
0
 62
     0
 10
5.38949
 20
132.314
 30
0.0
 11
5.03534
 21
132.667
 31
0.0
  0
LINE
  8
0
 62
     0
 10
5.03534
 20
132.667
 30
0.0
 11
4.58886
 21
132.892
 31
0.0
  0
LINE
  8
0
 62
     0
 10
4.58886
 20
132.892
 30
0.0
 11
4.09554
 21
132.971
 31
0.0
  0
LINE
  8
0
 62
     0
 10
4.09554
 20
132.971
 30
0.0
 11
3.6008
 21
132.892
 31
0.0
  0
ENDSEC
  0
EOF
