  0
SECTION
  2
HEADER
  9
$ACADVER
  1
AC1009
  9
$FILLMODE
 70
 0
  9
$SPLFRAME
 70
 1
  9
$EXTMIN
 10
0
 20
0
 30
0.0
  9
$EXTMAX
 10
1058.33
 20
1058.33
 30
0.0
  0
ENDSEC
  0
SECTION
  2
TABLES
  0
TABLE
  2
LAYER
 70
1
  0
LAYER
  2
0
 70
     0
 62
     7
  6
CONTINUOUS
  0
ENDTAB
  0
ENDSEC
  0
SECTION
  2
ENTITIES
  0
LINE
  8
0
 62
     0
 10
88.2964
 20
135.371
 30
0.0
 11
88.6093
 21
135.359
 31
0.0
  0
LINE
  8
0
 62
     0
 10
88.6093
 20
135.359
 30
0.0
 11
88.9222
 21
135.322
 31
0.0
  0
LINE
  8
0
 62
     0
 10
88.9222
 20
135.322
 30
0.0
 11
89.2295
 21
135.261
 31
0.0
  0
LINE
  8
0
 62
     0
 10
89.2295
 20
135.261
 30
0.0
 11
89.5325
 21
135.176
 31
0.0
  0
LINE
  8
0
 62
     0
 10
89.5325
 20
135.176
 30
0.0
 11
89.826
 21
135.067
 31
0.0
  0
LINE
  8
0
 62
     0
 10
89.826
 20
135.067
 30
0.0
 11
90.1114
 21
134.936
 31
0.0
  0
LINE
  8
0
 62
     0
 10
90.1114
 20
134.936
 30
0.0
 11
90.3855
 21
134.782
 31
0.0
  0
LINE
  8
0
 62
     0
 10
90.3855
 20
134.782
 30
0.0
 11
90.6473
 21
134.608
 31
0.0
  0
LINE
  8
0
 62
     0
 10
90.6473
 20
134.608
 30
0.0
 11
90.8939
 21
134.414
 31
0.0
  0
LINE
  8
0
 62
     0
 10
90.8939
 20
134.414
 30
0.0
 11
91.1243
 21
134.2
 31
0.0
  0
LINE
  8
0
 62
     0
 10
91.1243
 20
134.2
 30
0.0
 11
91.3377
 21
133.969
 31
0.0
  0
LINE
  8
0
 62
     0
 10
91.3377
 20
133.969
 30
0.0
 11
91.5321
 21
133.724
 31
0.0
  0
LINE
  8
0
 62
     0
 10
91.5321
 20
133.724
 30
0.0
 11
91.7071
 21
133.461
 31
0.0
  0
LINE
  8
0
 62
     0
 10
91.7071
 20
133.461
 30
0.0
 11
91.8602
 21
133.187
 31
0.0
  0
LINE
  8
0
 62
     0
 10
91.8602
 20
133.187
 30
0.0
 11
91.991
 21
132.902
 31
0.0
  0
LINE
  8
0
 62
     0
 10
91.991
 20
132.902
 30
0.0
 11
92.0997
 21
132.608
 31
0.0
  0
LINE
  8
0
 62
     0
 10
92.0997
 20
132.608
 30
0.0
 11
92.1854
 21
132.305
 31
0.0
  0
LINE
  8
0
 62
     0
 10
92.1854
 20
132.305
 30
0.0
 11
92.2457
 21
131.997
 31
0.0
  0
LINE
  8
0
 62
     0
 10
92.2457
 20
131.997
 30
0.0
 11
92.2831
 21
131.685
 31
0.0
  0
LINE
  8
0
 62
     0
 10
92.2831
 20
131.685
 30
0.0
 11
92.2969
 21
131.371
 31
0.0
  0
LINE
  8
0
 62
     0
 10
92.2969
 20
131.371
 30
0.0
 11
92.2969
 21
4.30773
 31
0.0
  0
LINE
  8
0
 62
     0
 10
92.2969
 20
4.30773
 30
0.0
 11
92.2831
 21
3.99355
 31
0.0
  0
LINE
  8
0
 62
     0
 10
92.2831
 20
3.99355
 30
0.0
 11
92.2457
 21
3.68212
 31
0.0
  0
LINE
  8
0
 62
     0
 10
92.2457
 20
3.68212
 30
0.0
 11
92.1854
 21
3.37482
 31
0.0
  0
LINE
  8
0
 62
     0
 10
92.1854
 20
3.37482
 30
0.0
 11
92.0997
 21
3.07165
 31
0.0
  0
LINE
  8
0
 62
     0
 10
92.0997
 20
3.07165
 30
0.0
 11
91.991
 21
2.77675
 31
0.0
  0
LINE
  8
0
 62
     0
 10
91.991
 20
2.77675
 30
0.0
 11
91.8602
 21
2.49149
 31
0.0
  0
LINE
  8
0
 62
     0
 10
91.8602
 20
2.49149
 30
0.0
 11
91.7071
 21
2.21864
 31
0.0
  0
LINE
  8
0
 62
     0
 10
91.7071
 20
2.21864
 30
0.0
 11
91.5321
 21
1.95682
 31
0.0
  0
LINE
  8
0
 62
     0
 10
91.5321
 20
1.95682
 30
0.0
 11
91.3377
 21
1.71015
 31
0.0
  0
LINE
  8
0
 62
     0
 10
91.3377
 20
1.71015
 30
0.0
 11
91.1243
 21
1.48001
 31
0.0
  0
LINE
  8
0
 62
     0
 10
91.1243
 20
1.48001
 30
0.0
 11
90.8939
 21
1.26642
 31
0.0
  0
LINE
  8
0
 62
     0
 10
90.8939
 20
1.26642
 30
0.0
 11
90.6473
 21
1.07211
 31
0.0
  0
LINE
  8
0
 62
     0
 10
90.6473
 20
1.07211
 30
0.0
 11
90.3855
 21
0.897103
 31
0.0
  0
LINE
  8
0
 62
     0
 10
90.3855
 20
0.897103
 30
0.0
 11
90.1114
 21
0.744142
 31
0.0
  0
LINE
  8
0
 62
     0
 10
90.1114
 20
0.744142
 30
0.0
 11
89.826
 21
0.611851
 31
0.0
  0
LINE
  8
0
 62
     0
 10
89.826
 20
0.611851
 30
0.0
 11
89.5325
 21
0.504363
 31
0.0
  0
LINE
  8
0
 62
     0
 10
89.5325
 20
0.504363
 30
0.0
 11
89.2295
 21
0.418924
 31
0.0
  0
LINE
  8
0
 62
     0
 10
89.2295
 20
0.418924
 30
0.0
 11
88.9222
 21
0.356912
 31
0.0
  0
LINE
  8
0
 62
     0
 10
88.9222
 20
0.356912
 30
0.0
 11
88.6093
 21
0.319705
 31
0.0
  0
LINE
  8
0
 62
     0
 10
88.6093
 20
0.319705
 30
0.0
 11
88.2964
 21
0.308681
 31
0.0
  0
LINE
  8
0
 62
     0
 10
88.2964
 20
0.308681
 30
0.0
 11
4.09554
 21
0.308681
 31
0.0
  0
LINE
  8
0
 62
     0
 10
4.09554
 20
0.308681
 30
0.0
 11
3.78135
 21
0.319705
 31
0.0
  0
LINE
  8
0
 62
     0
 10
3.78135
 20
0.319705
 30
0.0
 11
3.4699
 21
0.356912
 31
0.0
  0
LINE
  8
0
 62
     0
 10
3.4699
 20
0.356912
 30
0.0
 11
3.16122
 21
0.418924
 31
0.0
  0
LINE
  8
0
 62
     0
 10
3.16122
 20
0.418924
 30
0.0
 11
2.85805
 21
0.504363
 31
0.0
  0
LINE
  8
0
 62
     0
 10
2.85805
 20
0.504363
 30
0.0
 11
2.56453
 21
0.611851
 31
0.0
  0
LINE
  8
0
 62
     0
 10
2.56453
 20
0.611851
 30
0.0
 11
2.27928
 21
0.744142
 31
0.0
  0
LINE
  8
0
 62
     0
 10
2.27928
 20
0.744142
 30
0.0
 11
2.00504
 21
0.897103
 31
0.0
  0
LINE
  8
0
 62
     0
 10
2.00504
 20
0.897103
 30
0.0
 11
1.74322
 21
1.07211
 31
0.0
  0
LINE
  8
0
 62
     0
 10
1.74322
 20
1.07211
 30
0.0
 11
1.49793
 21
1.26642
 31
0.0
  0
LINE
  8
0
 62
     0
 10
1.49793
 20
1.26642
 30
0.0
 11
1.26642
 21
1.48001
 31
0.0
  0
LINE
  8
0
 62
     0
 10
1.26642
 20
1.48001
 30
0.0
 11
1.05282
 21
1.71015
 31
0.0
  0
LINE
  8
0
 62
     0
 10
1.05282
 20
1.71015
 30
0.0
 11
0.858516
 21
1.95682
 31
0.0
  0
LINE
  8
0
 62
     0
 10
0.858516
 20
1.95682
 30
0.0
 11
0.684886
 21
2.21864
 31
0.0
  0
LINE
  8
0
 62
     0
 10
0.684886
 20
2.21864
 30
0.0
 11
0.530546
 21
2.49149
 31
0.0
  0
LINE
  8
0
 62
     0
 10
0.530546
 20
2.49149
 30
0.0
 11
0.39963
 21
2.77675
 31
0.0
  0
LINE
  8
0
 62
     0
 10
0.39963
 20
2.77675
 30
0.0
 11
0.290766
 21
3.07165
 31
0.0
  0
LINE
  8
0
 62
     0
 10
0.290766
 20
3.07165
 30
0.0
 11
0.205328
 21
3.37482
 31
0.0
  0
LINE
  8
0
 62
     0
 10
0.205328
 20
3.37482
 30
0.0
 11
0.144694
 21
3.68212
 31
0.0
  0
LINE
  8
0
 62
     0
 10
0.144694
 20
3.68212
 30
0.0
 11
0.107487
 21
3.99355
 31
0.0
  0
LINE
  8
0
 62
     0
 10
0.107487
 20
3.99355
 30
0.0
 11
0.0950846
 21
4.30773
 31
0.0
  0
LINE
  8
0
 62
     0
 10
0.0950846
 20
4.30773
 30
0.0
 11
0.0950846
 21
131.371
 31
0.0
  0
LINE
  8
0
 62
     0
 10
0.0950846
 20
131.371
 30
0.0
 11
0.107487
 21
131.685
 31
0.0
  0
LINE
  8
0
 62
     0
 10
0.107487
 20
131.685
 30
0.0
 11
0.144694
 21
131.997
 31
0.0
  0
LINE
  8
0
 62
     0
 10
0.144694
 20
131.997
 30
0.0
 11
0.205328
 21
132.305
 31
0.0
  0
LINE
  8
0
 62
     0
 10
0.205328
 20
132.305
 30
0.0
 11
0.290766
 21
132.608
 31
0.0
  0
LINE
  8
0
 62
     0
 10
0.290766
 20
132.608
 30
0.0
 11
0.39963
 21
132.902
 31
0.0
  0
LINE
  8
0
 62
     0
 10
0.39963
 20
132.902
 30
0.0
 11
0.530546
 21
133.187
 31
0.0
  0
LINE
  8
0
 62
     0
 10
0.530546
 20
133.187
 30
0.0
 11
0.684886
 21
133.461
 31
0.0
  0
LINE
  8
0
 62
     0
 10
0.684886
 20
133.461
 30
0.0
 11
0.858516
 21
133.724
 31
0.0
  0
LINE
  8
0
 62
     0
 10
0.858516
 20
133.724
 30
0.0
 11
1.05282
 21
133.969
 31
0.0
  0
LINE
  8
0
 62
     0
 10
1.05282
 20
133.969
 30
0.0
 11
1.26642
 21
134.2
 31
0.0
  0
LINE
  8
0
 62
     0
 10
1.26642
 20
134.2
 30
0.0
 11
1.49793
 21
134.414
 31
0.0
  0
LINE
  8
0
 62
     0
 10
1.49793
 20
134.414
 30
0.0
 11
1.74322
 21
134.608
 31
0.0
  0
LINE
  8
0
 62
     0
 10
1.74322
 20
134.608
 30
0.0
 11
2.00504
 21
134.782
 31
0.0
  0
LINE
  8
0
 62
     0
 10
2.00504
 20
134.782
 30
0.0
 11
2.27928
 21
134.936
 31
0.0
  0
LINE
  8
0
 62
     0
 10
2.27928
 20
134.936
 30
0.0
 11
2.56453
 21
135.067
 31
0.0
  0
LINE
  8
0
 62
     0
 10
2.56453
 20
135.067
 30
0.0
 11
2.85805
 21
135.176
 31
0.0
  0
LINE
  8
0
 62
     0
 10
2.85805
 20
135.176
 30
0.0
 11
3.16122
 21
135.261
 31
0.0
  0
LINE
  8
0
 62
     0
 10
3.16122
 20
135.261
 30
0.0
 11
3.4699
 21
135.322
 31
0.0
  0
LINE
  8
0
 62
     0
 10
3.4699
 20
135.322
 30
0.0
 11
3.78135
 21
135.359
 31
0.0
  0
LINE
  8
0
 62
     0
 10
3.78135
 20
135.359
 30
0.0
 11
4.09554
 21
135.371
 31
0.0
  0
LINE
  8
0
 62
     0
 10
4.09554
 20
135.371
 30
0.0
 11
88.2964
 21
135.371
 31
0.0
  0
LINE
  8
0
 62
     0
 10
87.8018
 20
5.83046
 30
0.0
 11
87.3552
 21
5.60172
 31
0.0
  0
LINE
  8
0
 62
     0
 10
87.3552
 20
5.60172
 30
0.0
 11
87.001
 21
5.24757
 31
0.0
  0
LINE
  8
0
 62
     0
 10
87.001
 20
5.24757
 30
0.0
 11
86.7752
 21
4.80247
 31
0.0
  0
LINE
  8
0
 62
     0
 10
86.7752
 20
4.80247
 30
0.0
 11
86.6965
 21
4.30773
 31
0.0
  0
LINE
  8
0
 62
     0
 10
86.6965
 20
4.30773
 30
0.0
 11
86.7752
 21
3.81441
 31
0.0
  0
LINE
  8
0
 62
     0
 10
86.7752
 20
3.81441
 30
0.0
 11
87.001
 21
3.36793
 31
0.0
  0
LINE
  8
0
 62
     0
 10
87.001
 20
3.36793
 30
0.0
 11
87.3552
 21
3.01377
 31
0.0
  0
LINE
  8
0
 62
     0
 10
87.3552
 20
3.01377
 30
0.0
 11
87.8018
 21
2.78639
 31
0.0
  0
LINE
  8
0
 62
     0
 10
87.8018
 20
2.78639
 30
0.0
 11
88.2964
 21
2.70784
 31
0.0
  0
LINE
  8
0
 62
     0
 10
88.2964
 20
2.70784
 30
0.0
 11
88.791
 21
2.78639
 31
0.0
  0
LINE
  8
0
 62
     0
 10
88.791
 20
2.78639
 30
0.0
 11
89.2362
 21
3.01377
 31
0.0
  0
LINE
  8
0
 62
     0
 10
89.2362
 20
3.01377
 30
0.0
 11
89.5904
 21
3.36793
 31
0.0
  0
LINE
  8
0
 62
     0
 10
89.5904
 20
3.36793
 30
0.0
 11
89.8179
 21
3.81441
 31
0.0
  0
LINE
  8
0
 62
     0
 10
89.8179
 20
3.81441
 30
0.0
 11
89.8962
 21
4.30773
 31
0.0
  0
LINE
  8
0
 62
     0
 10
89.8962
 20
4.30773
 30
0.0
 11
89.8179
 21
4.80247
 31
0.0
  0
LINE
  8
0
 62
     0
 10
89.8179
 20
4.80247
 30
0.0
 11
89.5904
 21
5.24757
 31
0.0
  0
LINE
  8
0
 62
     0
 10
89.5904
 20
5.24757
 30
0.0
 11
89.2362
 21
5.60172
 31
0.0
  0
LINE
  8
0
 62
     0
 10
89.2362
 20
5.60172
 30
0.0
 11
88.791
 21
5.83046
 31
0.0
  0
LINE
  8
0
 62
     0
 10
88.791
 20
5.83046
 30
0.0
 11
88.2964
 21
5.90765
 31
0.0
  0
LINE
  8
0
 62
     0
 10
88.2964
 20
5.90765
 30
0.0
 11
87.8018
 21
5.83046
 31
0.0
  0
LINE
  8
0
 62
     0
 10
3.6008
 20
5.83046
 30
0.0
 11
3.15295
 21
5.60172
 31
0.0
  0
LINE
  8
0
 62
     0
 10
3.15295
 20
5.60172
 30
0.0
 11
2.80017
 21
5.24757
 31
0.0
  0
LINE
  8
0
 62
     0
 10
2.80017
 20
5.24757
 30
0.0
 11
2.57418
 21
4.80247
 31
0.0
  0
LINE
  8
0
 62
     0
 10
2.57418
 20
4.80247
 30
0.0
 11
2.49425
 21
4.30773
 31
0.0
  0
LINE
  8
0
 62
     0
 10
2.49425
 20
4.30773
 30
0.0
 11
2.57418
 21
3.81441
 31
0.0
  0
LINE
  8
0
 62
     0
 10
2.57418
 20
3.81441
 30
0.0
 11
2.80017
 21
3.36793
 31
0.0
  0
LINE
  8
0
 62
     0
 10
2.80017
 20
3.36793
 30
0.0
 11
3.15295
 21
3.01377
 31
0.0
  0
LINE
  8
0
 62
     0
 10
3.15295
 20
3.01377
 30
0.0
 11
3.6008
 21
2.78639
 31
0.0
  0
LINE
  8
0
 62
     0
 10
3.6008
 20
2.78639
 30
0.0
 11
4.09554
 21
2.70784
 31
0.0
  0
LINE
  8
0
 62
     0
 10
4.09554
 20
2.70784
 30
0.0
 11
4.58886
 21
2.78639
 31
0.0
  0
LINE
  8
0
 62
     0
 10
4.58886
 20
2.78639
 30
0.0
 11
5.03534
 21
3.01377
 31
0.0
  0
LINE
  8
0
 62
     0
 10
5.03534
 20
3.01377
 30
0.0
 11
5.38949
 21
3.36793
 31
0.0
  0
LINE
  8
0
 62
     0
 10
5.38949
 20
3.36793
 30
0.0
 11
5.61689
 21
3.81441
 31
0.0
  0
LINE
  8
0
 62
     0
 10
5.61689
 20
3.81441
 30
0.0
 11
5.69542
 21
4.30773
 31
0.0
  0
LINE
  8
0
 62
     0
 10
5.69542
 20
4.30773
 30
0.0
 11
5.61689
 21
4.80247
 31
0.0
  0
LINE
  8
0
 62
     0
 10
5.61689
 20
4.80247
 30
0.0
 11
5.38949
 21
5.24757
 31
0.0
  0
LINE
  8
0
 62
     0
 10
5.38949
 20
5.24757
 30
0.0
 11
5.03534
 21
5.60172
 31
0.0
  0
LINE
  8
0
 62
     0
 10
5.03534
 20
5.60172
 30
0.0
 11
4.58886
 21
5.83046
 31
0.0
  0
LINE
  8
0
 62
     0
 10
4.58886
 20
5.83046
 30
0.0
 11
4.09554
 21
5.90765
 31
0.0
  0
LINE
  8
0
 62
     0
 10
4.09554
 20
5.90765
 30
0.0
 11
3.6008
 21
5.83046
 31
0.0
  0
LINE
  8
0
 62
     0
 10
58.2454
 20
24.8336
 30
0.0
 11
58.2454
 21
23.8345
 31
0.0
  0
LINE
  8
0
 62
     0
 10
58.2454
 20
23.8345
 30
0.0
 11
57.4449
 21
23.8345
 31
0.0
  0
LINE
  8
0
 62
     0
 10
57.4449
 20
23.8345
 30
0.0
 11
57.4449
 21
20.7339
 31
0.0
  0
LINE
  8
0
 62
     0
 10
57.4449
 20
20.7339
 30
0.0
 11
58.2454
 21
20.7339
 31
0.0
  0
LINE
  8
0
 62
     0
 10
58.2454
 20
20.7339
 30
0.0
 11
58.2454
 21
20.1345
 31
0.0
  0
LINE
  8
0
 62
     0
 10
58.2454
 20
20.1345
 30
0.0
 11
56.72
 21
20.1345
 31
0.0
  0
LINE
  8
0
 62
     0
 10
56.72
 20
20.1345
 30
0.0
 11
56.72
 21
23.3646
 31
0.0
  0
LINE
  8
0
 62
     0
 10
56.72
 20
23.3646
 30
0.0
 11
54.9963
 21
23.3646
 31
0.0
  0
LINE
  8
0
 62
     0
 10
54.9963
 20
23.3646
 30
0.0
 11
54.9963
 21
24.2838
 31
0.0
  0
LINE
  8
0
 62
     0
 10
54.9963
 20
24.2838
 30
0.0
 11
51.6957
 21
24.2838
 31
0.0
  0
LINE
  8
0
 62
     0
 10
51.6957
 20
24.2838
 30
0.0
 11
51.6957
 21
23.3646
 31
0.0
  0
LINE
  8
0
 62
     0
 10
51.6957
 20
23.3646
 30
0.0
 11
49.9703
 21
23.3646
 31
0.0
  0
LINE
  8
0
 62
     0
 10
49.9703
 20
23.3646
 30
0.0
 11
49.9703
 21
20.1345
 31
0.0
  0
LINE
  8
0
 62
     0
 10
49.9703
 20
20.1345
 30
0.0
 11
49.1451
 21
20.1345
 31
0.0
  0
LINE
  8
0
 62
     0
 10
49.1451
 20
20.1345
 30
0.0
 11
49.1451
 21
17.3343
 31
0.0
  0
LINE
  8
0
 62
     0
 10
49.1451
 20
17.3343
 30
0.0
 11
49.9703
 21
17.3343
 31
0.0
  0
LINE
  8
0
 62
     0
 10
49.9703
 20
17.3343
 30
0.0
 11
49.9703
 21
11.0657
 31
0.0
  0
LINE
  8
0
 62
     0
 10
49.9703
 20
11.0657
 30
0.0
 11
51.6957
 21
11.0657
 31
0.0
  0
LINE
  8
0
 62
     0
 10
51.6957
 20
11.0657
 30
0.0
 11
51.6957
 21
10.0845
 31
0.0
  0
LINE
  8
0
 62
     0
 10
51.6957
 20
10.0845
 30
0.0
 11
54.9963
 21
10.0845
 31
0.0
  0
LINE
  8
0
 62
     0
 10
54.9963
 20
10.0845
 30
0.0
 11
54.9963
 21
11.0657
 31
0.0
  0
LINE
  8
0
 62
     0
 10
54.9963
 20
11.0657
 30
0.0
 11
56.72
 21
11.0657
 31
0.0
  0
LINE
  8
0
 62
     0
 10
56.72
 20
11.0657
 30
0.0
 11
56.72
 21
15.5346
 31
0.0
  0
LINE
  8
0
 62
     0
 10
56.72
 20
15.5346
 30
0.0
 11
58.2454
 21
15.5346
 31
0.0
  0
LINE
  8
0
 62
     0
 10
58.2454
 20
15.5346
 30
0.0
 11
58.2454
 21
14.9338
 31
0.0
  0
LINE
  8
0
 62
     0
 10
58.2454
 20
14.9338
 30
0.0
 11
57.4449
 21
14.9338
 31
0.0
  0
LINE
  8
0
 62
     0
 10
57.4449
 20
14.9338
 30
0.0
 11
57.4449
 21
11.8346
 31
0.0
  0
LINE
  8
0
 62
     0
 10
57.4449
 20
11.8346
 30
0.0
 11
58.2454
 21
11.8346
 31
0.0
  0
LINE
  8
0
 62
     0
 10
58.2454
 20
11.8346
 30
0.0
 11
58.2454
 21
10.8341
 31
0.0
  0
LINE
  8
0
 62
     0
 10
58.2454
 20
10.8341
 30
0.0
 11
72.245
 21
10.8341
 31
0.0
  0
LINE
  8
0
 62
     0
 10
72.245
 20
10.8341
 30
0.0
 11
72.245
 21
11.8346
 31
0.0
  0
LINE
  8
0
 62
     0
 10
72.245
 20
11.8346
 30
0.0
 11
73.0458
 21
11.8346
 31
0.0
  0
LINE
  8
0
 62
     0
 10
73.0458
 20
11.8346
 30
0.0
 11
73.0458
 21
14.9338
 31
0.0
  0
LINE
  8
0
 62
     0
 10
73.0458
 20
14.9338
 30
0.0
 11
72.245
 21
14.9338
 31
0.0
  0
LINE
  8
0
 62
     0
 10
72.245
 20
14.9338
 30
0.0
 11
72.245
 21
15.5346
 31
0.0
  0
LINE
  8
0
 62
     0
 10
72.245
 20
15.5346
 30
0.0
 11
73.7704
 21
15.5346
 31
0.0
  0
LINE
  8
0
 62
     0
 10
73.7704
 20
15.5346
 30
0.0
 11
73.7704
 21
11.0657
 31
0.0
  0
LINE
  8
0
 62
     0
 10
73.7704
 20
11.0657
 30
0.0
 11
75.4959
 21
11.0657
 31
0.0
  0
LINE
  8
0
 62
     0
 10
75.4959
 20
11.0657
 30
0.0
 11
75.4959
 21
10.0845
 31
0.0
  0
LINE
  8
0
 62
     0
 10
75.4959
 20
10.0845
 30
0.0
 11
78.7947
 21
10.0845
 31
0.0
  0
LINE
  8
0
 62
     0
 10
78.7947
 20
10.0845
 30
0.0
 11
78.7947
 21
11.0657
 31
0.0
  0
LINE
  8
0
 62
     0
 10
78.7947
 20
11.0657
 30
0.0
 11
80.5201
 21
11.0657
 31
0.0
  0
LINE
  8
0
 62
     0
 10
80.5201
 20
11.0657
 30
0.0
 11
80.5201
 21
17.3343
 31
0.0
  0
LINE
  8
0
 62
     0
 10
80.5201
 20
17.3343
 30
0.0
 11
81.3456
 21
17.3343
 31
0.0
  0
LINE
  8
0
 62
     0
 10
81.3456
 20
17.3343
 30
0.0
 11
81.3456
 21
20.1345
 31
0.0
  0
LINE
  8
0
 62
     0
 10
81.3456
 20
20.1345
 30
0.0
 11
80.5201
 21
20.1345
 31
0.0
  0
LINE
  8
0
 62
     0
 10
80.5201
 20
20.1345
 30
0.0
 11
80.5201
 21
23.3646
 31
0.0
  0
LINE
  8
0
 62
     0
 10
80.5201
 20
23.3646
 30
0.0
 11
78.7947
 21
23.3646
 31
0.0
  0
LINE
  8
0
 62
     0
 10
78.7947
 20
23.3646
 30
0.0
 11
78.7947
 21
24.2838
 31
0.0
  0
LINE
  8
0
 62
     0
 10
78.7947
 20
24.2838
 30
0.0
 11
75.4959
 21
24.2838
 31
0.0
  0
LINE
  8
0
 62
     0
 10
75.4959
 20
24.2838
 30
0.0
 11
75.4959
 21
23.3646
 31
0.0
  0
LINE
  8
0
 62
     0
 10
75.4959
 20
23.3646
 30
0.0
 11
73.7704
 21
23.3646
 31
0.0
  0
LINE
  8
0
 62
     0
 10
73.7704
 20
23.3646
 30
0.0
 11
73.7704
 21
20.1345
 31
0.0
  0
LINE
  8
0
 62
     0
 10
73.7704
 20
20.1345
 30
0.0
 11
72.245
 21
20.1345
 31
0.0
  0
LINE
  8
0
 62
     0
 10
72.245
 20
20.1345
 30
0.0
 11
72.245
 21
20.7339
 31
0.0
  0
LINE
  8
0
 62
     0
 10
72.245
 20
20.7339
 30
0.0
 11
73.0458
 21
20.7339
 31
0.0
  0
LINE
  8
0
 62
     0
 10
73.0458
 20
20.7339
 30
0.0
 11
73.0458
 21
23.8345
 31
0.0
  0
LINE
  8
0
 62
     0
 10
73.0458
 20
23.8345
 30
0.0
 11
72.245
 21
23.8345
 31
0.0
  0
LINE
  8
0
 62
     0
 10
72.245
 20
23.8345
 30
0.0
 11
72.245
 21
24.8336
 31
0.0
  0
LINE
  8
0
 62
     0
 10
72.245
 20
24.8336
 30
0.0
 11
58.2454
 21
24.8336
 31
0.0
  0
LINE
  8
0
 62
     0
 10
29.6692
 20
24.8336
 30
0.0
 11
29.6692
 21
23.8345
 31
0.0
  0
LINE
  8
0
 62
     0
 10
29.6692
 20
23.8345
 30
0.0
 11
28.8699
 21
23.8345
 31
0.0
  0
LINE
  8
0
 62
     0
 10
28.8699
 20
23.8345
 30
0.0
 11
28.8699
 21
20.7339
 31
0.0
  0
LINE
  8
0
 62
     0
 10
28.8699
 20
20.7339
 30
0.0
 11
29.6692
 21
20.7339
 31
0.0
  0
LINE
  8
0
 62
     0
 10
29.6692
 20
20.7339
 30
0.0
 11
29.6692
 21
14.9338
 31
0.0
  0
LINE
  8
0
 62
     0
 10
29.6692
 20
14.9338
 30
0.0
 11
28.8699
 21
14.9338
 31
0.0
  0
LINE
  8
0
 62
     0
 10
28.8699
 20
14.9338
 30
0.0
 11
28.8699
 21
11.8346
 31
0.0
  0
LINE
  8
0
 62
     0
 10
28.8699
 20
11.8346
 30
0.0
 11
29.6692
 21
11.8346
 31
0.0
  0
LINE
  8
0
 62
     0
 10
29.6692
 20
11.8346
 30
0.0
 11
29.6692
 21
10.8341
 31
0.0
  0
LINE
  8
0
 62
     0
 10
29.6692
 20
10.8341
 30
0.0
 11
43.67
 21
10.8341
 31
0.0
  0
LINE
  8
0
 62
     0
 10
43.67
 20
10.8341
 30
0.0
 11
43.67
 21
11.8346
 31
0.0
  0
LINE
  8
0
 62
     0
 10
43.67
 20
11.8346
 30
0.0
 11
44.4694
 21
11.8346
 31
0.0
  0
LINE
  8
0
 62
     0
 10
44.4694
 20
11.8346
 30
0.0
 11
44.4694
 21
14.9338
 31
0.0
  0
LINE
  8
0
 62
     0
 10
44.4694
 20
14.9338
 30
0.0
 11
43.67
 21
14.9338
 31
0.0
  0
LINE
  8
0
 62
     0
 10
43.67
 20
14.9338
 30
0.0
 11
43.67
 21
20.7339
 31
0.0
  0
LINE
  8
0
 62
     0
 10
43.67
 20
20.7339
 30
0.0
 11
44.4694
 21
20.7339
 31
0.0
  0
LINE
  8
0
 62
     0
 10
44.4694
 20
20.7339
 30
0.0
 11
44.4694
 21
23.8345
 31
0.0
  0
LINE
  8
0
 62
     0
 10
44.4694
 20
23.8345
 30
0.0
 11
43.67
 21
23.8345
 31
0.0
  0
LINE
  8
0
 62
     0
 10
43.67
 20
23.8345
 30
0.0
 11
43.67
 21
24.8336
 31
0.0
  0
LINE
  8
0
 62
     0
 10
43.67
 20
24.8336
 30
0.0
 11
29.6692
 21
24.8336
 31
0.0
  0
LINE
  8
0
 62
     0
 10
17.1208
 20
43.459
 30
0.0
 11
17.1208
 21
42.6339
 31
0.0
  0
LINE
  8
0
 62
     0
 10
17.1208
 20
42.6339
 30
0.0
 11
10.8493
 21
42.6339
 31
0.0
  0
LINE
  8
0
 62
     0
 10
10.8493
 20
42.6339
 30
0.0
 11
10.8493
 21
40.9099
 31
0.0
  0
LINE
  8
0
 62
     0
 10
10.8493
 20
40.9099
 30
0.0
 11
9.86952
 21
40.9099
 31
0.0
  0
LINE
  8
0
 62
     0
 10
9.86952
 20
40.9099
 30
0.0
 11
9.86952
 21
37.6093
 31
0.0
  0
LINE
  8
0
 62
     0
 10
9.86952
 20
37.6093
 30
0.0
 11
10.8493
 21
37.6093
 31
0.0
  0
LINE
  8
0
 62
     0
 10
10.8493
 20
37.6093
 30
0.0
 11
10.8493
 21
35.8842
 31
0.0
  0
LINE
  8
0
 62
     0
 10
10.8493
 20
35.8842
 30
0.0
 11
15.3197
 21
35.8842
 31
0.0
  0
LINE
  8
0
 62
     0
 10
15.3197
 20
35.8842
 30
0.0
 11
15.3197
 21
34.3586
 31
0.0
  0
LINE
  8
0
 62
     0
 10
15.3197
 20
34.3586
 30
0.0
 11
14.7202
 21
34.3586
 31
0.0
  0
LINE
  8
0
 62
     0
 10
14.7202
 20
34.3586
 30
0.0
 11
14.7202
 21
35.1593
 31
0.0
  0
LINE
  8
0
 62
     0
 10
14.7202
 20
35.1593
 30
0.0
 11
11.621
 21
35.1593
 31
0.0
  0
LINE
  8
0
 62
     0
 10
11.621
 20
35.1593
 30
0.0
 11
11.621
 21
34.3586
 31
0.0
  0
LINE
  8
0
 62
     0
 10
11.621
 20
34.3586
 30
0.0
 11
10.6192
 21
34.3586
 31
0.0
  0
LINE
  8
0
 62
     0
 10
10.6192
 20
34.3586
 30
0.0
 11
10.6192
 21
20.3591
 31
0.0
  0
LINE
  8
0
 62
     0
 10
10.6192
 20
20.3591
 30
0.0
 11
11.621
 21
20.3591
 31
0.0
  0
LINE
  8
0
 62
     0
 10
11.621
 20
20.3591
 30
0.0
 11
11.621
 21
19.5585
 31
0.0
  0
LINE
  8
0
 62
     0
 10
11.621
 20
19.5585
 30
0.0
 11
14.7202
 21
19.5585
 31
0.0
  0
LINE
  8
0
 62
     0
 10
14.7202
 20
19.5585
 30
0.0
 11
14.7202
 21
20.3591
 31
0.0
  0
LINE
  8
0
 62
     0
 10
14.7202
 20
20.3591
 30
0.0
 11
15.3197
 21
20.3591
 31
0.0
  0
LINE
  8
0
 62
     0
 10
15.3197
 20
20.3591
 30
0.0
 11
15.3197
 21
18.8336
 31
0.0
  0
LINE
  8
0
 62
     0
 10
15.3197
 20
18.8336
 30
0.0
 11
10.8493
 21
18.8336
 31
0.0
  0
LINE
  8
0
 62
     0
 10
10.8493
 20
18.8336
 30
0.0
 11
10.8493
 21
17.1097
 31
0.0
  0
LINE
  8
0
 62
     0
 10
10.8493
 20
17.1097
 30
0.0
 11
9.86952
 21
17.1097
 31
0.0
  0
LINE
  8
0
 62
     0
 10
9.86952
 20
17.1097
 30
0.0
 11
9.86952
 21
13.8093
 31
0.0
  0
LINE
  8
0
 62
     0
 10
9.86952
 20
13.8093
 30
0.0
 11
10.8493
 21
13.8093
 31
0.0
  0
LINE
  8
0
 62
     0
 10
10.8493
 20
13.8093
 30
0.0
 11
10.8493
 21
12.084
 31
0.0
  0
LINE
  8
0
 62
     0
 10
10.8493
 20
12.084
 30
0.0
 11
17.1208
 21
12.084
 31
0.0
  0
LINE
  8
0
 62
     0
 10
17.1208
 20
12.084
 30
0.0
 11
17.1208
 21
11.2586
 31
0.0
  0
LINE
  8
0
 62
     0
 10
17.1208
 20
11.2586
 30
0.0
 11
19.9209
 21
11.2586
 31
0.0
  0
LINE
  8
0
 62
     0
 10
19.9209
 20
11.2586
 30
0.0
 11
19.9209
 21
12.084
 31
0.0
  0
LINE
  8
0
 62
     0
 10
19.9209
 20
12.084
 30
0.0
 11
23.151
 21
12.084
 31
0.0
  0
LINE
  8
0
 62
     0
 10
23.151
 20
12.084
 30
0.0
 11
23.151
 21
13.8093
 31
0.0
  0
LINE
  8
0
 62
     0
 10
23.151
 20
13.8093
 30
0.0
 11
24.0702
 21
13.8093
 31
0.0
  0
LINE
  8
0
 62
     0
 10
24.0702
 20
13.8093
 30
0.0
 11
24.0702
 21
17.1097
 31
0.0
  0
LINE
  8
0
 62
     0
 10
24.0702
 20
17.1097
 30
0.0
 11
23.151
 21
17.1097
 31
0.0
  0
LINE
  8
0
 62
     0
 10
23.151
 20
17.1097
 30
0.0
 11
23.151
 21
18.8336
 31
0.0
  0
LINE
  8
0
 62
     0
 10
23.151
 20
18.8336
 30
0.0
 11
19.9209
 21
18.8336
 31
0.0
  0
LINE
  8
0
 62
     0
 10
19.9209
 20
18.8336
 30
0.0
 11
19.9209
 21
20.3591
 31
0.0
  0
LINE
  8
0
 62
     0
 10
19.9209
 20
20.3591
 30
0.0
 11
20.519
 21
20.3591
 31
0.0
  0
LINE
  8
0
 62
     0
 10
20.519
 20
20.3591
 30
0.0
 11
20.519
 21
19.5585
 31
0.0
  0
LINE
  8
0
 62
     0
 10
20.519
 20
19.5585
 30
0.0
 11
23.6209
 21
19.5585
 31
0.0
  0
LINE
  8
0
 62
     0
 10
23.6209
 20
19.5585
 30
0.0
 11
23.6209
 21
20.3591
 31
0.0
  0
LINE
  8
0
 62
     0
 10
23.6209
 20
20.3591
 30
0.0
 11
24.62
 21
20.3591
 31
0.0
  0
LINE
  8
0
 62
     0
 10
24.62
 20
20.3591
 30
0.0
 11
24.62
 21
34.3586
 31
0.0
  0
LINE
  8
0
 62
     0
 10
24.62
 20
34.3586
 30
0.0
 11
23.6209
 21
34.3586
 31
0.0
  0
LINE
  8
0
 62
     0
 10
23.6209
 20
34.3586
 30
0.0
 11
23.6209
 21
35.1593
 31
0.0
  0
LINE
  8
0
 62
     0
 10
23.6209
 20
35.1593
 30
0.0
 11
20.519
 21
35.1593
 31
0.0
  0
LINE
  8
0
 62
     0
 10
20.519
 20
35.1593
 30
0.0
 11
20.519
 21
34.3586
 31
0.0
  0
LINE
  8
0
 62
     0
 10
20.519
 20
34.3586
 30
0.0
 11
19.9209
 21
34.3586
 31
0.0
  0
LINE
  8
0
 62
     0
 10
19.9209
 20
34.3586
 30
0.0
 11
19.9209
 21
35.8842
 31
0.0
  0
LINE
  8
0
 62
     0
 10
19.9209
 20
35.8842
 30
0.0
 11
23.151
 21
35.8842
 31
0.0
  0
LINE
  8
0
 62
     0
 10
23.151
 20
35.8842
 30
0.0
 11
23.151
 21
37.6093
 31
0.0
  0
LINE
  8
0
 62
     0
 10
23.151
 20
37.6093
 30
0.0
 11
24.0688
 21
37.6093
 31
0.0
  0
LINE
  8
0
 62
     0
 10
24.0688
 20
37.6093
 30
0.0
 11
24.0688
 21
40.9099
 31
0.0
  0
LINE
  8
0
 62
     0
 10
24.0688
 20
40.9099
 30
0.0
 11
23.151
 21
40.9099
 31
0.0
  0
LINE
  8
0
 62
     0
 10
23.151
 20
40.9099
 30
0.0
 11
23.151
 21
42.6339
 31
0.0
  0
LINE
  8
0
 62
     0
 10
23.151
 20
42.6339
 30
0.0
 11
19.9195
 21
42.6339
 31
0.0
  0
LINE
  8
0
 62
     0
 10
19.9195
 20
42.6339
 30
0.0
 11
19.9195
 21
43.459
 31
0.0
  0
LINE
  8
0
 62
     0
 10
19.9195
 20
43.459
 30
0.0
 11
17.1208
 21
43.459
 31
0.0
  0
LINE
  8
0
 62
     0
 10
29.6706
 20
43.8838
 30
0.0
 11
29.6706
 21
42.8847
 31
0.0
  0
LINE
  8
0
 62
     0
 10
29.6706
 20
42.8847
 30
0.0
 11
28.8699
 21
42.8847
 31
0.0
  0
LINE
  8
0
 62
     0
 10
28.8699
 20
42.8847
 30
0.0
 11
28.8699
 21
39.7838
 31
0.0
  0
LINE
  8
0
 62
     0
 10
28.8699
 20
39.7838
 30
0.0
 11
29.6706
 21
39.7838
 31
0.0
  0
LINE
  8
0
 62
     0
 10
29.6706
 20
39.7838
 30
0.0
 11
29.6706
 21
33.9838
 31
0.0
  0
LINE
  8
0
 62
     0
 10
29.6706
 20
33.9838
 30
0.0
 11
28.8699
 21
33.9838
 31
0.0
  0
LINE
  8
0
 62
     0
 10
28.8699
 20
33.9838
 30
0.0
 11
28.8699
 21
30.8846
 31
0.0
  0
LINE
  8
0
 62
     0
 10
28.8699
 20
30.8846
 30
0.0
 11
29.6706
 21
30.8846
 31
0.0
  0
LINE
  8
0
 62
     0
 10
29.6706
 20
30.8846
 30
0.0
 11
29.6706
 21
29.8841
 31
0.0
  0
LINE
  8
0
 62
     0
 10
29.6706
 20
29.8841
 30
0.0
 11
43.67
 21
29.8841
 31
0.0
  0
LINE
  8
0
 62
     0
 10
43.67
 20
29.8841
 30
0.0
 11
43.67
 21
30.8846
 31
0.0
  0
LINE
  8
0
 62
     0
 10
43.67
 20
30.8846
 30
0.0
 11
44.4708
 21
30.8846
 31
0.0
  0
LINE
  8
0
 62
     0
 10
44.4708
 20
30.8846
 30
0.0
 11
44.4708
 21
33.9838
 31
0.0
  0
LINE
  8
0
 62
     0
 10
44.4708
 20
33.9838
 30
0.0
 11
43.67
 21
33.9838
 31
0.0
  0
LINE
  8
0
 62
     0
 10
43.67
 20
33.9838
 30
0.0
 11
43.67
 21
39.7838
 31
0.0
  0
LINE
  8
0
 62
     0
 10
43.67
 20
39.7838
 30
0.0
 11
44.4708
 21
39.7838
 31
0.0
  0
LINE
  8
0
 62
     0
 10
44.4708
 20
39.7838
 30
0.0
 11
44.4708
 21
42.8847
 31
0.0
  0
LINE
  8
0
 62
     0
 10
44.4708
 20
42.8847
 30
0.0
 11
43.67
 21
42.8847
 31
0.0
  0
LINE
  8
0
 62
     0
 10
43.67
 20
42.8847
 30
0.0
 11
43.67
 21
43.8838
 31
0.0
  0
LINE
  8
0
 62
     0
 10
43.67
 20
43.8838
 30
0.0
 11
29.6706
 21
43.8838
 31
0.0
  0
LINE
  8
0
 62
     0
 10
48.7204
 20
43.8838
 30
0.0
 11
48.7204
 21
42.8847
 31
0.0
  0
LINE
  8
0
 62
     0
 10
48.7204
 20
42.8847
 30
0.0
 11
47.9199
 21
42.8847
 31
0.0
  0
LINE
  8
0
 62
     0
 10
47.9199
 20
42.8847
 30
0.0
 11
47.9199
 21
39.7838
 31
0.0
  0
LINE
  8
0
 62
     0
 10
47.9199
 20
39.7838
 30
0.0
 11
48.7204
 21
39.7838
 31
0.0
  0
LINE
  8
0
 62
     0
 10
48.7204
 20
39.7838
 30
0.0
 11
48.7204
 21
33.9838
 31
0.0
  0
LINE
  8
0
 62
     0
 10
48.7204
 20
33.9838
 30
0.0
 11
47.9199
 21
33.9838
 31
0.0
  0
LINE
  8
0
 62
     0
 10
47.9199
 20
33.9838
 30
0.0
 11
47.9199
 21
30.8846
 31
0.0
  0
LINE
  8
0
 62
     0
 10
47.9199
 20
30.8846
 30
0.0
 11
48.7204
 21
30.8846
 31
0.0
  0
LINE
  8
0
 62
     0
 10
48.7204
 20
30.8846
 30
0.0
 11
48.7204
 21
29.8841
 31
0.0
  0
LINE
  8
0
 62
     0
 10
48.7204
 20
29.8841
 30
0.0
 11
62.72
 21
29.8841
 31
0.0
  0
LINE
  8
0
 62
     0
 10
62.72
 20
29.8841
 30
0.0
 11
62.72
 21
30.8846
 31
0.0
  0
LINE
  8
0
 62
     0
 10
62.72
 20
30.8846
 30
0.0
 11
63.5208
 21
30.8846
 31
0.0
  0
LINE
  8
0
 62
     0
 10
63.5208
 20
30.8846
 30
0.0
 11
63.5208
 21
33.9838
 31
0.0
  0
LINE
  8
0
 62
     0
 10
63.5208
 20
33.9838
 30
0.0
 11
62.72
 21
33.9838
 31
0.0
  0
LINE
  8
0
 62
     0
 10
62.72
 20
33.9838
 30
0.0
 11
62.72
 21
39.7838
 31
0.0
  0
LINE
  8
0
 62
     0
 10
62.72
 20
39.7838
 30
0.0
 11
63.5208
 21
39.7838
 31
0.0
  0
LINE
  8
0
 62
     0
 10
63.5208
 20
39.7838
 30
0.0
 11
63.5208
 21
42.8847
 31
0.0
  0
LINE
  8
0
 62
     0
 10
63.5208
 20
42.8847
 30
0.0
 11
62.72
 21
42.8847
 31
0.0
  0
LINE
  8
0
 62
     0
 10
62.72
 20
42.8847
 30
0.0
 11
62.72
 21
43.8838
 31
0.0
  0
LINE
  8
0
 62
     0
 10
62.72
 20
43.8838
 30
0.0
 11
48.7204
 21
43.8838
 31
0.0
  0
LINE
  8
0
 62
     0
 10
67.7704
 20
43.8838
 30
0.0
 11
67.7704
 21
42.8847
 31
0.0
  0
LINE
  8
0
 62
     0
 10
67.7704
 20
42.8847
 30
0.0
 11
66.9699
 21
42.8847
 31
0.0
  0
LINE
  8
0
 62
     0
 10
66.9699
 20
42.8847
 30
0.0
 11
66.9699
 21
39.7838
 31
0.0
  0
LINE
  8
0
 62
     0
 10
66.9699
 20
39.7838
 30
0.0
 11
67.7704
 21
39.7838
 31
0.0
  0
LINE
  8
0
 62
     0
 10
67.7704
 20
39.7838
 30
0.0
 11
67.7704
 21
33.9838
 31
0.0
  0
LINE
  8
0
 62
     0
 10
67.7704
 20
33.9838
 30
0.0
 11
66.9699
 21
33.9838
 31
0.0
  0
LINE
  8
0
 62
     0
 10
66.9699
 20
33.9838
 30
0.0
 11
66.9699
 21
30.8846
 31
0.0
  0
LINE
  8
0
 62
     0
 10
66.9699
 20
30.8846
 30
0.0
 11
67.7704
 21
30.8846
 31
0.0
  0
LINE
  8
0
 62
     0
 10
67.7704
 20
30.8846
 30
0.0
 11
67.7704
 21
29.8841
 31
0.0
  0
LINE
  8
0
 62
     0
 10
67.7704
 20
29.8841
 30
0.0
 11
81.77
 21
29.8841
 31
0.0
  0
LINE
  8
0
 62
     0
 10
81.77
 20
29.8841
 30
0.0
 11
81.77
 21
30.8846
 31
0.0
  0
LINE
  8
0
 62
     0
 10
81.77
 20
30.8846
 30
0.0
 11
82.5708
 21
30.8846
 31
0.0
  0
LINE
  8
0
 62
     0
 10
82.5708
 20
30.8846
 30
0.0
 11
82.5708
 21
33.9838
 31
0.0
  0
LINE
  8
0
 62
     0
 10
82.5708
 20
33.9838
 30
0.0
 11
81.77
 21
33.9838
 31
0.0
  0
LINE
  8
0
 62
     0
 10
81.77
 20
33.9838
 30
0.0
 11
81.77
 21
39.7838
 31
0.0
  0
LINE
  8
0
 62
     0
 10
81.77
 20
39.7838
 30
0.0
 11
82.5708
 21
39.7838
 31
0.0
  0
LINE
  8
0
 62
     0
 10
82.5708
 20
39.7838
 30
0.0
 11
82.5708
 21
42.8847
 31
0.0
  0
LINE
  8
0
 62
     0
 10
82.5708
 20
42.8847
 30
0.0
 11
81.77
 21
42.8847
 31
0.0
  0
LINE
  8
0
 62
     0
 10
81.77
 20
42.8847
 30
0.0
 11
81.77
 21
43.8838
 31
0.0
  0
LINE
  8
0
 62
     0
 10
81.77
 20
43.8838
 30
0.0
 11
67.7704
 21
43.8838
 31
0.0
  0
LINE
  8
0
 62
     0
 10
29.6692
 20
62.9338
 30
0.0
 11
29.6692
 21
61.9347
 31
0.0
  0
LINE
  8
0
 62
     0
 10
29.6692
 20
61.9347
 30
0.0
 11
28.8699
 21
61.9347
 31
0.0
  0
LINE
  8
0
 62
     0
 10
28.8699
 20
61.9347
 30
0.0
 11
28.8699
 21
58.8338
 31
0.0
  0
LINE
  8
0
 62
     0
 10
28.8699
 20
58.8338
 30
0.0
 11
29.6692
 21
58.8338
 31
0.0
  0
LINE
  8
0
 62
     0
 10
29.6692
 20
58.8338
 30
0.0
 11
29.6692
 21
53.0338
 31
0.0
  0
LINE
  8
0
 62
     0
 10
29.6692
 20
53.0338
 30
0.0
 11
28.8699
 21
53.0338
 31
0.0
  0
LINE
  8
0
 62
     0
 10
28.8699
 20
53.0338
 30
0.0
 11
28.8699
 21
49.9346
 31
0.0
  0
LINE
  8
0
 62
     0
 10
28.8699
 20
49.9346
 30
0.0
 11
29.6692
 21
49.9346
 31
0.0
  0
LINE
  8
0
 62
     0
 10
29.6692
 20
49.9346
 30
0.0
 11
29.6692
 21
48.9342
 31
0.0
  0
LINE
  8
0
 62
     0
 10
29.6692
 20
48.9342
 30
0.0
 11
43.67
 21
48.9342
 31
0.0
  0
LINE
  8
0
 62
     0
 10
43.67
 20
48.9342
 30
0.0
 11
43.67
 21
49.9346
 31
0.0
  0
LINE
  8
0
 62
     0
 10
43.67
 20
49.9346
 30
0.0
 11
44.4694
 21
49.9346
 31
0.0
  0
LINE
  8
0
 62
     0
 10
44.4694
 20
49.9346
 30
0.0
 11
44.4694
 21
53.0338
 31
0.0
  0
LINE
  8
0
 62
     0
 10
44.4694
 20
53.0338
 30
0.0
 11
43.67
 21
53.0338
 31
0.0
  0
LINE
  8
0
 62
     0
 10
43.67
 20
53.0338
 30
0.0
 11
43.67
 21
58.8338
 31
0.0
  0
LINE
  8
0
 62
     0
 10
43.67
 20
58.8338
 30
0.0
 11
44.4694
 21
58.8338
 31
0.0
  0
LINE
  8
0
 62
     0
 10
44.4694
 20
58.8338
 30
0.0
 11
44.4694
 21
61.9347
 31
0.0
  0
LINE
  8
0
 62
     0
 10
44.4694
 20
61.9347
 30
0.0
 11
43.67
 21
61.9347
 31
0.0
  0
LINE
  8
0
 62
     0
 10
43.67
 20
61.9347
 30
0.0
 11
43.67
 21
62.9338
 31
0.0
  0
LINE
  8
0
 62
     0
 10
43.67
 20
62.9338
 30
0.0
 11
29.6692
 21
62.9338
 31
0.0
  0
LINE
  8
0
 62
     0
 10
48.7204
 20
62.9338
 30
0.0
 11
48.7204
 21
61.9347
 31
0.0
  0
LINE
  8
0
 62
     0
 10
48.7204
 20
61.9347
 30
0.0
 11
47.9199
 21
61.9347
 31
0.0
  0
LINE
  8
0
 62
     0
 10
47.9199
 20
61.9347
 30
0.0
 11
47.9199
 21
58.8338
 31
0.0
  0
LINE
  8
0
 62
     0
 10
47.9199
 20
58.8338
 30
0.0
 11
48.7204
 21
58.8338
 31
0.0
  0
LINE
  8
0
 62
     0
 10
48.7204
 20
58.8338
 30
0.0
 11
48.7204
 21
53.0338
 31
0.0
  0
LINE
  8
0
 62
     0
 10
48.7204
 20
53.0338
 30
0.0
 11
47.9199
 21
53.0338
 31
0.0
  0
LINE
  8
0
 62
     0
 10
47.9199
 20
53.0338
 30
0.0
 11
47.9199
 21
49.9346
 31
0.0
  0
LINE
  8
0
 62
     0
 10
47.9199
 20
49.9346
 30
0.0
 11
48.7204
 21
49.9346
 31
0.0
  0
LINE
  8
0
 62
     0
 10
48.7204
 20
49.9346
 30
0.0
 11
48.7204
 21
48.9342
 31
0.0
  0
LINE
  8
0
 62
     0
 10
48.7204
 20
48.9342
 30
0.0
 11
62.72
 21
48.9342
 31
0.0
  0
LINE
  8
0
 62
     0
 10
62.72
 20
48.9342
 30
0.0
 11
62.72
 21
49.9346
 31
0.0
  0
LINE
  8
0
 62
     0
 10
62.72
 20
49.9346
 30
0.0
 11
63.5208
 21
49.9346
 31
0.0
  0
LINE
  8
0
 62
     0
 10
63.5208
 20
49.9346
 30
0.0
 11
63.5208
 21
53.0338
 31
0.0
  0
LINE
  8
0
 62
     0
 10
63.5208
 20
53.0338
 30
0.0
 11
62.72
 21
53.0338
 31
0.0
  0
LINE
  8
0
 62
     0
 10
62.72
 20
53.0338
 30
0.0
 11
62.72
 21
58.8338
 31
0.0
  0
LINE
  8
0
 62
     0
 10
62.72
 20
58.8338
 30
0.0
 11
63.5208
 21
58.8338
 31
0.0
  0
LINE
  8
0
 62
     0
 10
63.5208
 20
58.8338
 30
0.0
 11
63.5208
 21
61.9347
 31
0.0
  0
LINE
  8
0
 62
     0
 10
63.5208
 20
61.9347
 30
0.0
 11
62.72
 21
61.9347
 31
0.0
  0
LINE
  8
0
 62
     0
 10
62.72
 20
61.9347
 30
0.0
 11
62.72
 21
62.9338
 31
0.0
  0
LINE
  8
0
 62
     0
 10
62.72
 20
62.9338
 30
0.0
 11
48.7204
 21
62.9338
 31
0.0
  0
LINE
  8
0
 62
     0
 10
67.7704
 20
62.9338
 30
0.0
 11
67.7704
 21
61.9347
 31
0.0
  0
LINE
  8
0
 62
     0
 10
67.7704
 20
61.9347
 30
0.0
 11
66.9699
 21
61.9347
 31
0.0
  0
LINE
  8
0
 62
     0
 10
66.9699
 20
61.9347
 30
0.0
 11
66.9699
 21
58.8338
 31
0.0
  0
LINE
  8
0
 62
     0
 10
66.9699
 20
58.8338
 30
0.0
 11
67.7704
 21
58.8338
 31
0.0
  0
LINE
  8
0
 62
     0
 10
67.7704
 20
58.8338
 30
0.0
 11
67.7704
 21
53.0338
 31
0.0
  0
LINE
  8
0
 62
     0
 10
67.7704
 20
53.0338
 30
0.0
 11
66.9699
 21
53.0338
 31
0.0
  0
LINE
  8
0
 62
     0
 10
66.9699
 20
53.0338
 30
0.0
 11
66.9699
 21
49.9346
 31
0.0
  0
LINE
  8
0
 62
     0
 10
66.9699
 20
49.9346
 30
0.0
 11
67.7704
 21
49.9346
 31
0.0
  0
LINE
  8
0
 62
     0
 10
67.7704
 20
49.9346
 30
0.0
 11
67.7704
 21
48.9342
 31
0.0
  0
LINE
  8
0
 62
     0
 10
67.7704
 20
48.9342
 30
0.0
 11
81.77
 21
48.9342
 31
0.0
  0
LINE
  8
0
 62
     0
 10
81.77
 20
48.9342
 30
0.0
 11
81.77
 21
49.9346
 31
0.0
  0
LINE
  8
0
 62
     0
 10
81.77
 20
49.9346
 30
0.0
 11
82.5708
 21
49.9346
 31
0.0
  0
LINE
  8
0
 62
     0
 10
82.5708
 20
49.9346
 30
0.0
 11
82.5708
 21
53.0338
 31
0.0
  0
LINE
  8
0
 62
     0
 10
82.5708
 20
53.0338
 30
0.0
 11
81.77
 21
53.0338
 31
0.0
  0
LINE
  8
0
 62
     0
 10
81.77
 20
53.0338
 30
0.0
 11
81.77
 21
58.8338
 31
0.0
  0
LINE
  8
0
 62
     0
 10
81.77
 20
58.8338
 30
0.0
 11
82.5708
 21
58.8338
 31
0.0
  0
LINE
  8
0
 62
     0
 10
82.5708
 20
58.8338
 30
0.0
 11
82.5708
 21
61.9347
 31
0.0
  0
LINE
  8
0
 62
     0
 10
82.5708
 20
61.9347
 30
0.0
 11
81.77
 21
61.9347
 31
0.0
  0
LINE
  8
0
 62
     0
 10
81.77
 20
61.9347
 30
0.0
 11
81.77
 21
62.9338
 31
0.0
  0
LINE
  8
0
 62
     0
 10
81.77
 20
62.9338
 30
0.0
 11
67.7704
 21
62.9338
 31
0.0
  0
LINE
  8
0
 62
     0
 10
17.1208
 20
81.559
 30
0.0
 11
17.1208
 21
80.7339
 31
0.0
  0
LINE
  8
0
 62
     0
 10
17.1208
 20
80.7339
 30
0.0
 11
10.8493
 21
80.7339
 31
0.0
  0
LINE
  8
0
 62
     0
 10
10.8493
 20
80.7339
 30
0.0
 11
10.8493
 21
79.0099
 31
0.0
  0
LINE
  8
0
 62
     0
 10
10.8493
 20
79.0099
 30
0.0
 11
9.86952
 21
79.0099
 31
0.0
  0
LINE
  8
0
 62
     0
 10
9.86952
 20
79.0099
 30
0.0
 11
9.86952
 21
75.7093
 31
0.0
  0
LINE
  8
0
 62
     0
 10
9.86952
 20
75.7093
 30
0.0
 11
10.8493
 21
75.7093
 31
0.0
  0
LINE
  8
0
 62
     0
 10
10.8493
 20
75.7093
 30
0.0
 11
10.8493
 21
73.9842
 31
0.0
  0
LINE
  8
0
 62
     0
 10
10.8493
 20
73.9842
 30
0.0
 11
15.3197
 21
73.9842
 31
0.0
  0
LINE
  8
0
 62
     0
 10
15.3197
 20
73.9842
 30
0.0
 11
15.3197
 21
72.4588
 31
0.0
  0
LINE
  8
0
 62
     0
 10
15.3197
 20
72.4588
 30
0.0
 11
14.7202
 21
72.4588
 31
0.0
  0
LINE
  8
0
 62
     0
 10
14.7202
 20
72.4588
 30
0.0
 11
14.7202
 21
73.2592
 31
0.0
  0
LINE
  8
0
 62
     0
 10
14.7202
 20
73.2592
 30
0.0
 11
11.621
 21
73.2592
 31
0.0
  0
LINE
  8
0
 62
     0
 10
11.621
 20
73.2592
 30
0.0
 11
11.621
 21
72.4588
 31
0.0
  0
LINE
  8
0
 62
     0
 10
11.621
 20
72.4588
 30
0.0
 11
10.6192
 21
72.4588
 31
0.0
  0
LINE
  8
0
 62
     0
 10
10.6192
 20
72.4588
 30
0.0
 11
10.6192
 21
58.4592
 31
0.0
  0
LINE
  8
0
 62
     0
 10
10.6192
 20
58.4592
 30
0.0
 11
11.621
 21
58.4592
 31
0.0
  0
LINE
  8
0
 62
     0
 10
11.621
 20
58.4592
 30
0.0
 11
11.621
 21
57.6584
 31
0.0
  0
LINE
  8
0
 62
     0
 10
11.621
 20
57.6584
 30
0.0
 11
14.7202
 21
57.6584
 31
0.0
  0
LINE
  8
0
 62
     0
 10
14.7202
 20
57.6584
 30
0.0
 11
14.7202
 21
58.4592
 31
0.0
  0
LINE
  8
0
 62
     0
 10
14.7202
 20
58.4592
 30
0.0
 11
15.3197
 21
58.4592
 31
0.0
  0
LINE
  8
0
 62
     0
 10
15.3197
 20
58.4592
 30
0.0
 11
15.3197
 21
56.9337
 31
0.0
  0
LINE
  8
0
 62
     0
 10
15.3197
 20
56.9337
 30
0.0
 11
10.8493
 21
56.9337
 31
0.0
  0
LINE
  8
0
 62
     0
 10
10.8493
 20
56.9337
 30
0.0
 11
10.8493
 21
55.2097
 31
0.0
  0
LINE
  8
0
 62
     0
 10
10.8493
 20
55.2097
 30
0.0
 11
9.86952
 21
55.2097
 31
0.0
  0
LINE
  8
0
 62
     0
 10
9.86952
 20
55.2097
 30
0.0
 11
9.86952
 21
51.9095
 31
0.0
  0
LINE
  8
0
 62
     0
 10
9.86952
 20
51.9095
 30
0.0
 11
10.8493
 21
51.9095
 31
0.0
  0
LINE
  8
0
 62
     0
 10
10.8493
 20
51.9095
 30
0.0
 11
10.8493
 21
50.184
 31
0.0
  0
LINE
  8
0
 62
     0
 10
10.8493
 20
50.184
 30
0.0
 11
17.1208
 21
50.184
 31
0.0
  0
LINE
  8
0
 62
     0
 10
17.1208
 20
50.184
 30
0.0
 11
17.1208
 21
49.3586
 31
0.0
  0
LINE
  8
0
 62
     0
 10
17.1208
 20
49.3586
 30
0.0
 11
19.9209
 21
49.3586
 31
0.0
  0
LINE
  8
0
 62
     0
 10
19.9209
 20
49.3586
 30
0.0
 11
19.9209
 21
50.184
 31
0.0
  0
LINE
  8
0
 62
     0
 10
19.9209
 20
50.184
 30
0.0
 11
23.151
 21
50.184
 31
0.0
  0
LINE
  8
0
 62
     0
 10
23.151
 20
50.184
 30
0.0
 11
23.151
 21
51.9095
 31
0.0
  0
LINE
  8
0
 62
     0
 10
23.151
 20
51.9095
 30
0.0
 11
24.0702
 21
51.9095
 31
0.0
  0
LINE
  8
0
 62
     0
 10
24.0702
 20
51.9095
 30
0.0
 11
24.0702
 21
55.2097
 31
0.0
  0
LINE
  8
0
 62
     0
 10
24.0702
 20
55.2097
 30
0.0
 11
23.151
 21
55.2097
 31
0.0
  0
LINE
  8
0
 62
     0
 10
23.151
 20
55.2097
 30
0.0
 11
23.151
 21
56.9337
 31
0.0
  0
LINE
  8
0
 62
     0
 10
23.151
 20
56.9337
 30
0.0
 11
19.9209
 21
56.9337
 31
0.0
  0
LINE
  8
0
 62
     0
 10
19.9209
 20
56.9337
 30
0.0
 11
19.9209
 21
58.4592
 31
0.0
  0
LINE
  8
0
 62
     0
 10
19.9209
 20
58.4592
 30
0.0
 11
20.519
 21
58.4592
 31
0.0
  0
LINE
  8
0
 62
     0
 10
20.519
 20
58.4592
 30
0.0
 11
20.519
 21
57.6584
 31
0.0
  0
LINE
  8
0
 62
     0
 10
20.519
 20
57.6584
 30
0.0
 11
23.6209
 21
57.6584
 31
0.0
  0
LINE
  8
0
 62
     0
 10
23.6209
 20
57.6584
 30
0.0
 11
23.6209
 21
58.4592
 31
0.0
  0
LINE
  8
0
 62
     0
 10
23.6209
 20
58.4592
 30
0.0
 11
24.62
 21
58.4592
 31
0.0
  0
LINE
  8
0
 62
     0
 10
24.62
 20
58.4592
 30
0.0
 11
24.62
 21
72.4588
 31
0.0
  0
LINE
  8
0
 62
     0
 10
24.62
 20
72.4588
 30
0.0
 11
23.6209
 21
72.4588
 31
0.0
  0
LINE
  8
0
 62
     0
 10
23.6209
 20
72.4588
 30
0.0
 11
23.6209
 21
73.2592
 31
0.0
  0
LINE
  8
0
 62
     0
 10
23.6209
 20
73.2592
 30
0.0
 11
20.519
 21
73.2592
 31
0.0
  0
LINE
  8
0
 62
     0
 10
20.519
 20
73.2592
 30
0.0
 11
20.519
 21
72.4588
 31
0.0
  0
LINE
  8
0
 62
     0
 10
20.519
 20
72.4588
 30
0.0
 11
19.9209
 21
72.4588
 31
0.0
  0
LINE
  8
0
 62
     0
 10
19.9209
 20
72.4588
 30
0.0
 11
19.9209
 21
73.9842
 31
0.0
  0
LINE
  8
0
 62
     0
 10
19.9209
 20
73.9842
 30
0.0
 11
23.151
 21
73.9842
 31
0.0
  0
LINE
  8
0
 62
     0
 10
23.151
 20
73.9842
 30
0.0
 11
23.151
 21
75.7093
 31
0.0
  0
LINE
  8
0
 62
     0
 10
23.151
 20
75.7093
 30
0.0
 11
24.0688
 21
75.7093
 31
0.0
  0
LINE
  8
0
 62
     0
 10
24.0688
 20
75.7093
 30
0.0
 11
24.0688
 21
79.0099
 31
0.0
  0
LINE
  8
0
 62
     0
 10
24.0688
 20
79.0099
 30
0.0
 11
23.151
 21
79.0099
 31
0.0
  0
LINE
  8
0
 62
     0
 10
23.151
 20
79.0099
 30
0.0
 11
23.151
 21
80.7339
 31
0.0
  0
LINE
  8
0
 62
     0
 10
23.151
 20
80.7339
 30
0.0
 11
19.9195
 21
80.7339
 31
0.0
  0
LINE
  8
0
 62
     0
 10
19.9195
 20
80.7339
 30
0.0
 11
19.9195
 21
81.559
 31
0.0
  0
LINE
  8
0
 62
     0
 10
19.9195
 20
81.559
 30
0.0
 11
17.1208
 21
81.559
 31
0.0
  0
LINE
  8
0
 62
     0
 10
87.8018
 20
69.3607
 30
0.0
 11
87.3552
 21
69.1349
 31
0.0
  0
LINE
  8
0
 62
     0
 10
87.3552
 20
69.1349
 30
0.0
 11
87.001
 21
68.7807
 31
0.0
  0
LINE
  8
0
 62
     0
 10
87.001
 20
68.7807
 30
0.0
 11
86.7752
 21
68.3341
 31
0.0
  0
LINE
  8
0
 62
     0
 10
86.7752
 20
68.3341
 30
0.0
 11
86.6965
 21
67.8409
 31
0.0
  0
LINE
  8
0
 62
     0
 10
86.6965
 20
67.8409
 30
0.0
 11
86.7752
 21
67.3446
 31
0.0
  0
LINE
  8
0
 62
     0
 10
86.7752
 20
67.3446
 30
0.0
 11
87.001
 21
66.8997
 31
0.0
  0
LINE
  8
0
 62
     0
 10
87.001
 20
66.8997
 30
0.0
 11
87.3552
 21
66.5455
 31
0.0
  0
LINE
  8
0
 62
     0
 10
87.3552
 20
66.5455
 30
0.0
 11
87.8018
 21
66.318
 31
0.0
  0
LINE
  8
0
 62
     0
 10
87.8018
 20
66.318
 30
0.0
 11
88.2964
 21
66.2397
 31
0.0
  0
LINE
  8
0
 62
     0
 10
88.2964
 20
66.2397
 30
0.0
 11
88.791
 21
66.318
 31
0.0
  0
LINE
  8
0
 62
     0
 10
88.791
 20
66.318
 30
0.0
 11
89.2362
 21
66.5455
 31
0.0
  0
LINE
  8
0
 62
     0
 10
89.2362
 20
66.5455
 30
0.0
 11
89.5904
 21
66.8997
 31
0.0
  0
LINE
  8
0
 62
     0
 10
89.5904
 20
66.8997
 30
0.0
 11
89.8179
 21
67.3446
 31
0.0
  0
LINE
  8
0
 62
     0
 10
89.8179
 20
67.3446
 30
0.0
 11
89.8962
 21
67.8409
 31
0.0
  0
LINE
  8
0
 62
     0
 10
89.8962
 20
67.8409
 30
0.0
 11
89.8179
 21
68.3341
 31
0.0
  0
LINE
  8
0
 62
     0
 10
89.8179
 20
68.3341
 30
0.0
 11
89.5904
 21
68.7807
 31
0.0
  0
LINE
  8
0
 62
     0
 10
89.5904
 20
68.7807
 30
0.0
 11
89.2362
 21
69.1349
 31
0.0
  0
LINE
  8
0
 62
     0
 10
89.2362
 20
69.1349
 30
0.0
 11
88.791
 21
69.3607
 31
0.0
  0
LINE
  8
0
 62
     0
 10
88.791
 20
69.3607
 30
0.0
 11
88.2964
 21
69.4408
 31
0.0
  0
LINE
  8
0
 62
     0
 10
88.2964
 20
69.4408
 30
0.0
 11
87.8018
 21
69.3607
 31
0.0
  0
LINE
  8
0
 62
     0
 10
3.6008
 20
69.3607
 30
0.0
 11
3.15295
 21
69.1349
 31
0.0
  0
LINE
  8
0
 62
     0
 10
3.15295
 20
69.1349
 30
0.0
 11
2.80017
 21
68.7807
 31
0.0
  0
LINE
  8
0
 62
     0
 10
2.80017
 20
68.7807
 30
0.0
 11
2.57418
 21
68.3341
 31
0.0
  0
LINE
  8
0
 62
     0
 10
2.57418
 20
68.3341
 30
0.0
 11
2.49425
 21
67.8409
 31
0.0
  0
LINE
  8
0
 62
     0
 10
2.49425
 20
67.8409
 30
0.0
 11
2.57418
 21
67.3446
 31
0.0
  0
LINE
  8
0
 62
     0
 10
2.57418
 20
67.3446
 30
0.0
 11
2.80017
 21
66.8997
 31
0.0
  0
LINE
  8
0
 62
     0
 10
2.80017
 20
66.8997
 30
0.0
 11
3.15295
 21
66.5455
 31
0.0
  0
LINE
  8
0
 62
     0
 10
3.15295
 20
66.5455
 30
0.0
 11
3.6008
 21
66.318
 31
0.0
  0
LINE
  8
0
 62
     0
 10
3.6008
 20
66.318
 30
0.0
 11
4.09554
 21
66.2397
 31
0.0
  0
LINE
  8
0
 62
     0
 10
4.09554
 20
66.2397
 30
0.0
 11
4.58886
 21
66.318
 31
0.0
  0
LINE
  8
0
 62
     0
 10
4.58886
 20
66.318
 30
0.0
 11
5.03534
 21
66.5455
 31
0.0
  0
LINE
  8
0
 62
     0
 10
5.03534
 20
66.5455
 30
0.0
 11
5.38949
 21
66.8997
 31
0.0
  0
LINE
  8
0
 62
     0
 10
5.38949
 20
66.8997
 30
0.0
 11
5.61689
 21
67.3446
 31
0.0
  0
LINE
  8
0
 62
     0
 10
5.61689
 20
67.3446
 30
0.0
 11
5.69542
 21
67.8409
 31
0.0
  0
LINE
  8
0
 62
     0
 10
5.69542
 20
67.8409
 30
0.0
 11
5.61689
 21
68.3341
 31
0.0
  0
LINE
  8
0
 62
     0
 10
5.61689
 20
68.3341
 30
0.0
 11
5.38949
 21
68.7807
 31
0.0
  0
LINE
  8
0
 62
     0
 10
5.38949
 20
68.7807
 30
0.0
 11
5.03534
 21
69.1349
 31
0.0
  0
LINE
  8
0
 62
     0
 10
5.03534
 20
69.1349
 30
0.0
 11
4.58886
 21
69.3607
 31
0.0
  0
LINE
  8
0
 62
     0
 10
4.58886
 20
69.3607
 30
0.0
 11
4.09554
 21
69.4408
 31
0.0
  0
LINE
  8
0
 62
     0
 10
4.09554
 20
69.4408
 30
0.0
 11
3.6008
 21
69.3607
 31
0.0
  0
LINE
  8
0
 62
     0
 10
29.6706
 20
81.9838
 30
0.0
 11
29.6706
 21
80.9847
 31
0.0
  0
LINE
  8
0
 62
     0
 10
29.6706
 20
80.9847
 30
0.0
 11
28.8699
 21
80.9847
 31
0.0
  0
LINE
  8
0
 62
     0
 10
28.8699
 20
80.9847
 30
0.0
 11
28.8699
 21
77.8838
 31
0.0
  0
LINE
  8
0
 62
     0
 10
28.8699
 20
77.8838
 30
0.0
 11
29.6706
 21
77.8838
 31
0.0
  0
LINE
  8
0
 62
     0
 10
29.6706
 20
77.8838
 30
0.0
 11
29.6706
 21
72.0838
 31
0.0
  0
LINE
  8
0
 62
     0
 10
29.6706
 20
72.0838
 30
0.0
 11
28.8699
 21
72.0838
 31
0.0
  0
LINE
  8
0
 62
     0
 10
28.8699
 20
72.0838
 30
0.0
 11
28.8699
 21
68.9846
 31
0.0
  0
LINE
  8
0
 62
     0
 10
28.8699
 20
68.9846
 30
0.0
 11
29.6706
 21
68.9846
 31
0.0
  0
LINE
  8
0
 62
     0
 10
29.6706
 20
68.9846
 30
0.0
 11
29.6706
 21
67.9842
 31
0.0
  0
LINE
  8
0
 62
     0
 10
29.6706
 20
67.9842
 30
0.0
 11
43.67
 21
67.9842
 31
0.0
  0
LINE
  8
0
 62
     0
 10
43.67
 20
67.9842
 30
0.0
 11
43.67
 21
68.9846
 31
0.0
  0
LINE
  8
0
 62
     0
 10
43.67
 20
68.9846
 30
0.0
 11
44.4708
 21
68.9846
 31
0.0
  0
LINE
  8
0
 62
     0
 10
44.4708
 20
68.9846
 30
0.0
 11
44.4708
 21
72.0838
 31
0.0
  0
LINE
  8
0
 62
     0
 10
44.4708
 20
72.0838
 30
0.0
 11
43.67
 21
72.0838
 31
0.0
  0
LINE
  8
0
 62
     0
 10
43.67
 20
72.0838
 30
0.0
 11
43.67
 21
77.8838
 31
0.0
  0
LINE
  8
0
 62
     0
 10
43.67
 20
77.8838
 30
0.0
 11
44.4708
 21
77.8838
 31
0.0
  0
LINE
  8
0
 62
     0
 10
44.4708
 20
77.8838
 30
0.0
 11
44.4708
 21
80.9847
 31
0.0
  0
LINE
  8
0
 62
     0
 10
44.4708
 20
80.9847
 30
0.0
 11
43.67
 21
80.9847
 31
0.0
  0
LINE
  8
0
 62
     0
 10
43.67
 20
80.9847
 30
0.0
 11
43.67
 21
81.9838
 31
0.0
  0
LINE
  8
0
 62
     0
 10
43.67
 20
81.9838
 30
0.0
 11
29.6706
 21
81.9838
 31
0.0
  0
LINE
  8
0
 62
     0
 10
48.7204
 20
81.9838
 30
0.0
 11
48.7204
 21
80.9847
 31
0.0
  0
LINE
  8
0
 62
     0
 10
48.7204
 20
80.9847
 30
0.0
 11
47.9199
 21
80.9847
 31
0.0
  0
LINE
  8
0
 62
     0
 10
47.9199
 20
80.9847
 30
0.0
 11
47.9199
 21
77.8838
 31
0.0
  0
LINE
  8
0
 62
     0
 10
47.9199
 20
77.8838
 30
0.0
 11
48.7204
 21
77.8838
 31
0.0
  0
LINE
  8
0
 62
     0
 10
48.7204
 20
77.8838
 30
0.0
 11
48.7204
 21
72.0838
 31
0.0
  0
LINE
  8
0
 62
     0
 10
48.7204
 20
72.0838
 30
0.0
 11
47.9199
 21
72.0838
 31
0.0
  0
LINE
  8
0
 62
     0
 10
47.9199
 20
72.0838
 30
0.0
 11
47.9199
 21
68.9846
 31
0.0
  0
LINE
  8
0
 62
     0
 10
47.9199
 20
68.9846
 30
0.0
 11
48.7204
 21
68.9846
 31
0.0
  0
LINE
  8
0
 62
     0
 10
48.7204
 20
68.9846
 30
0.0
 11
48.7204
 21
67.9842
 31
0.0
  0
LINE
  8
0
 62
     0
 10
48.7204
 20
67.9842
 30
0.0
 11
62.72
 21
67.9842
 31
0.0
  0
LINE
  8
0
 62
     0
 10
62.72
 20
67.9842
 30
0.0
 11
62.72
 21
68.9846
 31
0.0
  0
LINE
  8
0
 62
     0
 10
62.72
 20
68.9846
 30
0.0
 11
63.5208
 21
68.9846
 31
0.0
  0
LINE
  8
0
 62
     0
 10
63.5208
 20
68.9846
 30
0.0
 11
63.5208
 21
72.0838
 31
0.0
  0
LINE
  8
0
 62
     0
 10
63.5208
 20
72.0838
 30
0.0
 11
62.72
 21
72.0838
 31
0.0
  0
LINE
  8
0
 62
     0
 10
62.72
 20
72.0838
 30
0.0
 11
62.72
 21
77.8838
 31
0.0
  0
LINE
  8
0
 62
     0
 10
62.72
 20
77.8838
 30
0.0
 11
63.5208
 21
77.8838
 31
0.0
  0
LINE
  8
0
 62
     0
 10
63.5208
 20
77.8838
 30
0.0
 11
63.5208
 21
80.9847
 31
0.0
  0
LINE
  8
0
 62
     0
 10
63.5208
 20
80.9847
 30
0.0
 11
62.72
 21
80.9847
 31
0.0
  0
LINE
  8
0
 62
     0
 10
62.72
 20
80.9847
 30
0.0
 11
62.72
 21
81.9838
 31
0.0
  0
LINE
  8
0
 62
     0
 10
62.72
 20
81.9838
 30
0.0
 11
48.7204
 21
81.9838
 31
0.0
  0
LINE
  8
0
 62
     0
 10
67.7704
 20
81.9838
 30
0.0
 11
67.7704
 21
80.9847
 31
0.0
  0
LINE
  8
0
 62
     0
 10
67.7704
 20
80.9847
 30
0.0
 11
66.9699
 21
80.9847
 31
0.0
  0
LINE
  8
0
 62
     0
 10
66.9699
 20
80.9847
 30
0.0
 11
66.9699
 21
77.8838
 31
0.0
  0
LINE
  8
0
 62
     0
 10
66.9699
 20
77.8838
 30
0.0
 11
67.7704
 21
77.8838
 31
0.0
  0
LINE
  8
0
 62
     0
 10
67.7704
 20
77.8838
 30
0.0
 11
67.7704
 21
72.0838
 31
0.0
  0
LINE
  8
0
 62
     0
 10
67.7704
 20
72.0838
 30
0.0
 11
66.9699
 21
72.0838
 31
0.0
  0
LINE
  8
0
 62
     0
 10
66.9699
 20
72.0838
 30
0.0
 11
66.9699
 21
68.9846
 31
0.0
  0
LINE
  8
0
 62
     0
 10
66.9699
 20
68.9846
 30
0.0
 11
67.7704
 21
68.9846
 31
0.0
  0
LINE
  8
0
 62
     0
 10
67.7704
 20
68.9846
 30
0.0
 11
67.7704
 21
67.9842
 31
0.0
  0
LINE
  8
0
 62
     0
 10
67.7704
 20
67.9842
 30
0.0
 11
81.77
 21
67.9842
 31
0.0
  0
LINE
  8
0
 62
     0
 10
81.77
 20
67.9842
 30
0.0
 11
81.77
 21
68.9846
 31
0.0
  0
LINE
  8
0
 62
     0
 10
81.77
 20
68.9846
 30
0.0
 11
82.5708
 21
68.9846
 31
0.0
  0
LINE
  8
0
 62
     0
 10
82.5708
 20
68.9846
 30
0.0
 11
82.5708
 21
72.0838
 31
0.0
  0
LINE
  8
0
 62
     0
 10
82.5708
 20
72.0838
 30
0.0
 11
81.77
 21
72.0838
 31
0.0
  0
LINE
  8
0
 62
     0
 10
81.77
 20
72.0838
 30
0.0
 11
81.77
 21
77.8838
 31
0.0
  0
LINE
  8
0
 62
     0
 10
81.77
 20
77.8838
 30
0.0
 11
82.5708
 21
77.8838
 31
0.0
  0
LINE
  8
0
 62
     0
 10
82.5708
 20
77.8838
 30
0.0
 11
82.5708
 21
80.9847
 31
0.0
  0
LINE
  8
0
 62
     0
 10
82.5708
 20
80.9847
 30
0.0
 11
81.77
 21
80.9847
 31
0.0
  0
LINE
  8
0
 62
     0
 10
81.77
 20
80.9847
 30
0.0
 11
81.77
 21
81.9838
 31
0.0
  0
LINE
  8
0
 62
     0
 10
81.77
 20
81.9838
 30
0.0
 11
67.7704
 21
81.9838
 31
0.0
  0
LINE
  8
0
 62
     0
 10
10.6192
 20
101.034
 30
0.0
 11
10.6192
 21
100.035
 31
0.0
  0
LINE
  8
0
 62
     0
 10
10.6192
 20
100.035
 30
0.0
 11
9.81989
 21
100.035
 31
0.0
  0
LINE
  8
0
 62
     0
 10
9.81989
 20
100.035
 30
0.0
 11
9.81989
 21
96.9338
 31
0.0
  0
LINE
  8
0
 62
     0
 10
9.81989
 20
96.9338
 30
0.0
 11
10.6192
 21
96.9338
 31
0.0
  0
LINE
  8
0
 62
     0
 10
10.6192
 20
96.9338
 30
0.0
 11
10.6192
 21
91.1338
 31
0.0
  0
LINE
  8
0
 62
     0
 10
10.6192
 20
91.1338
 30
0.0
 11
9.81989
 21
91.1338
 31
0.0
  0
LINE
  8
0
 62
     0
 10
9.81989
 20
91.1338
 30
0.0
 11
9.81989
 21
88.0346
 31
0.0
  0
LINE
  8
0
 62
     0
 10
9.81989
 20
88.0346
 30
0.0
 11
10.6192
 21
88.0346
 31
0.0
  0
LINE
  8
0
 62
     0
 10
10.6192
 20
88.0346
 30
0.0
 11
10.6192
 21
87.0342
 31
0.0
  0
LINE
  8
0
 62
     0
 10
10.6192
 20
87.0342
 30
0.0
 11
24.62
 21
87.0342
 31
0.0
  0
LINE
  8
0
 62
     0
 10
24.62
 20
87.0342
 30
0.0
 11
24.62
 21
88.0346
 31
0.0
  0
LINE
  8
0
 62
     0
 10
24.62
 20
88.0346
 30
0.0
 11
25.4207
 21
88.0346
 31
0.0
  0
LINE
  8
0
 62
     0
 10
25.4207
 20
88.0346
 30
0.0
 11
25.4207
 21
91.1338
 31
0.0
  0
LINE
  8
0
 62
     0
 10
25.4207
 20
91.1338
 30
0.0
 11
24.62
 21
91.1338
 31
0.0
  0
LINE
  8
0
 62
     0
 10
24.62
 20
91.1338
 30
0.0
 11
24.62
 21
96.9338
 31
0.0
  0
LINE
  8
0
 62
     0
 10
24.62
 20
96.9338
 30
0.0
 11
25.4207
 21
96.9338
 31
0.0
  0
LINE
  8
0
 62
     0
 10
25.4207
 20
96.9338
 30
0.0
 11
25.4207
 21
100.035
 31
0.0
  0
LINE
  8
0
 62
     0
 10
25.4207
 20
100.035
 30
0.0
 11
24.62
 21
100.035
 31
0.0
  0
LINE
  8
0
 62
     0
 10
24.62
 20
100.035
 30
0.0
 11
24.62
 21
101.034
 31
0.0
  0
LINE
  8
0
 62
     0
 10
24.62
 20
101.034
 30
0.0
 11
10.6192
 21
101.034
 31
0.0
  0
LINE
  8
0
 62
     0
 10
29.6706
 20
101.034
 30
0.0
 11
29.6706
 21
100.035
 31
0.0
  0
LINE
  8
0
 62
     0
 10
29.6706
 20
100.035
 30
0.0
 11
28.8699
 21
100.035
 31
0.0
  0
LINE
  8
0
 62
     0
 10
28.8699
 20
100.035
 30
0.0
 11
28.8699
 21
96.9338
 31
0.0
  0
LINE
  8
0
 62
     0
 10
28.8699
 20
96.9338
 30
0.0
 11
29.6706
 21
96.9338
 31
0.0
  0
LINE
  8
0
 62
     0
 10
29.6706
 20
96.9338
 30
0.0
 11
29.6706
 21
91.1338
 31
0.0
  0
LINE
  8
0
 62
     0
 10
29.6706
 20
91.1338
 30
0.0
 11
28.8699
 21
91.1338
 31
0.0
  0
LINE
  8
0
 62
     0
 10
28.8699
 20
91.1338
 30
0.0
 11
28.8699
 21
88.0346
 31
0.0
  0
LINE
  8
0
 62
     0
 10
28.8699
 20
88.0346
 30
0.0
 11
29.6706
 21
88.0346
 31
0.0
  0
LINE
  8
0
 62
     0
 10
29.6706
 20
88.0346
 30
0.0
 11
29.6706
 21
87.0342
 31
0.0
  0
LINE
  8
0
 62
     0
 10
29.6706
 20
87.0342
 30
0.0
 11
43.67
 21
87.0342
 31
0.0
  0
LINE
  8
0
 62
     0
 10
43.67
 20
87.0342
 30
0.0
 11
43.67
 21
88.0346
 31
0.0
  0
LINE
  8
0
 62
     0
 10
43.67
 20
88.0346
 30
0.0
 11
44.4708
 21
88.0346
 31
0.0
  0
LINE
  8
0
 62
     0
 10
44.4708
 20
88.0346
 30
0.0
 11
44.4708
 21
91.1338
 31
0.0
  0
LINE
  8
0
 62
     0
 10
44.4708
 20
91.1338
 30
0.0
 11
43.67
 21
91.1338
 31
0.0
  0
LINE
  8
0
 62
     0
 10
43.67
 20
91.1338
 30
0.0
 11
43.67
 21
96.9338
 31
0.0
  0
LINE
  8
0
 62
     0
 10
43.67
 20
96.9338
 30
0.0
 11
44.4708
 21
96.9338
 31
0.0
  0
LINE
  8
0
 62
     0
 10
44.4708
 20
96.9338
 30
0.0
 11
44.4708
 21
100.035
 31
0.0
  0
LINE
  8
0
 62
     0
 10
44.4708
 20
100.035
 30
0.0
 11
43.67
 21
100.035
 31
0.0
  0
LINE
  8
0
 62
     0
 10
43.67
 20
100.035
 30
0.0
 11
43.67
 21
101.034
 31
0.0
  0
LINE
  8
0
 62
     0
 10
43.67
 20
101.034
 30
0.0
 11
29.6706
 21
101.034
 31
0.0
  0
LINE
  8
0
 62
     0
 10
48.7204
 20
101.034
 30
0.0
 11
48.7204
 21
100.035
 31
0.0
  0
LINE
  8
0
 62
     0
 10
48.7204
 20
100.035
 30
0.0
 11
47.9199
 21
100.035
 31
0.0
  0
LINE
  8
0
 62
     0
 10
47.9199
 20
100.035
 30
0.0
 11
47.9199
 21
96.9338
 31
0.0
  0
LINE
  8
0
 62
     0
 10
47.9199
 20
96.9338
 30
0.0
 11
48.7204
 21
96.9338
 31
0.0
  0
LINE
  8
0
 62
     0
 10
48.7204
 20
96.9338
 30
0.0
 11
48.7204
 21
91.1338
 31
0.0
  0
LINE
  8
0
 62
     0
 10
48.7204
 20
91.1338
 30
0.0
 11
47.9199
 21
91.1338
 31
0.0
  0
LINE
  8
0
 62
     0
 10
47.9199
 20
91.1338
 30
0.0
 11
47.9199
 21
88.0346
 31
0.0
  0
LINE
  8
0
 62
     0
 10
47.9199
 20
88.0346
 30
0.0
 11
48.7204
 21
88.0346
 31
0.0
  0
LINE
  8
0
 62
     0
 10
48.7204
 20
88.0346
 30
0.0
 11
48.7204
 21
87.0342
 31
0.0
  0
LINE
  8
0
 62
     0
 10
48.7204
 20
87.0342
 30
0.0
 11
62.72
 21
87.0342
 31
0.0
  0
LINE
  8
0
 62
     0
 10
62.72
 20
87.0342
 30
0.0
 11
62.72
 21
88.0346
 31
0.0
  0
LINE
  8
0
 62
     0
 10
62.72
 20
88.0346
 30
0.0
 11
63.5208
 21
88.0346
 31
0.0
  0
LINE
  8
0
 62
     0
 10
63.5208
 20
88.0346
 30
0.0
 11
63.5208
 21
91.1338
 31
0.0
  0
LINE
  8
0
 62
     0
 10
63.5208
 20
91.1338
 30
0.0
 11
62.72
 21
91.1338
 31
0.0
  0
LINE
  8
0
 62
     0
 10
62.72
 20
91.1338
 30
0.0
 11
62.72
 21
96.9338
 31
0.0
  0
LINE
  8
0
 62
     0
 10
62.72
 20
96.9338
 30
0.0
 11
63.5208
 21
96.9338
 31
0.0
  0
LINE
  8
0
 62
     0
 10
63.5208
 20
96.9338
 30
0.0
 11
63.5208
 21
100.035
 31
0.0
  0
LINE
  8
0
 62
     0
 10
63.5208
 20
100.035
 30
0.0
 11
62.72
 21
100.035
 31
0.0
  0
LINE
  8
0
 62
     0
 10
62.72
 20
100.035
 30
0.0
 11
62.72
 21
101.034
 31
0.0
  0
LINE
  8
0
 62
     0
 10
62.72
 20
101.034
 30
0.0
 11
48.7204
 21
101.034
 31
0.0
  0
LINE
  8
0
 62
     0
 10
67.7704
 20
101.034
 30
0.0
 11
67.7704
 21
100.035
 31
0.0
  0
LINE
  8
0
 62
     0
 10
67.7704
 20
100.035
 30
0.0
 11
66.9699
 21
100.035
 31
0.0
  0
LINE
  8
0
 62
     0
 10
66.9699
 20
100.035
 30
0.0
 11
66.9699
 21
96.9338
 31
0.0
  0
LINE
  8
0
 62
     0
 10
66.9699
 20
96.9338
 30
0.0
 11
67.7704
 21
96.9338
 31
0.0
  0
LINE
  8
0
 62
     0
 10
67.7704
 20
96.9338
 30
0.0
 11
67.7704
 21
91.1338
 31
0.0
  0
LINE
  8
0
 62
     0
 10
67.7704
 20
91.1338
 30
0.0
 11
66.9699
 21
91.1338
 31
0.0
  0
LINE
  8
0
 62
     0
 10
66.9699
 20
91.1338
 30
0.0
 11
66.9699
 21
88.0346
 31
0.0
  0
LINE
  8
0
 62
     0
 10
66.9699
 20
88.0346
 30
0.0
 11
67.7704
 21
88.0346
 31
0.0
  0
LINE
  8
0
 62
     0
 10
67.7704
 20
88.0346
 30
0.0
 11
67.7704
 21
87.0342
 31
0.0
  0
LINE
  8
0
 62
     0
 10
67.7704
 20
87.0342
 30
0.0
 11
81.77
 21
87.0342
 31
0.0
  0
LINE
  8
0
 62
     0
 10
81.77
 20
87.0342
 30
0.0
 11
81.77
 21
88.0346
 31
0.0
  0
LINE
  8
0
 62
     0
 10
81.77
 20
88.0346
 30
0.0
 11
82.5708
 21
88.0346
 31
0.0
  0
LINE
  8
0
 62
     0
 10
82.5708
 20
88.0346
 30
0.0
 11
82.5708
 21
91.1338
 31
0.0
  0
LINE
  8
0
 62
     0
 10
82.5708
 20
91.1338
 30
0.0
 11
81.77
 21
91.1338
 31
0.0
  0
LINE
  8
0
 62
     0
 10
81.77
 20
91.1338
 30
0.0
 11
81.77
 21
96.9338
 31
0.0
  0
LINE
  8
0
 62
     0
 10
81.77
 20
96.9338
 30
0.0
 11
82.5708
 21
96.9338
 31
0.0
  0
LINE
  8
0
 62
     0
 10
82.5708
 20
96.9338
 30
0.0
 11
82.5708
 21
100.035
 31
0.0
  0
LINE
  8
0
 62
     0
 10
82.5708
 20
100.035
 30
0.0
 11
81.77
 21
100.035
 31
0.0
  0
LINE
  8
0
 62
     0
 10
81.77
 20
100.035
 30
0.0
 11
81.77
 21
101.034
 31
0.0
  0
LINE
  8
0
 62
     0
 10
81.77
 20
101.034
 30
0.0
 11
67.7704
 21
101.034
 31
0.0
  0
LINE
  8
0
 62
     0
 10
10.6192
 20
124.847
 30
0.0
 11
10.6192
 21
123.846
 31
0.0
  0
LINE
  8
0
 62
     0
 10
10.6192
 20
123.846
 30
0.0
 11
9.81989
 21
123.846
 31
0.0
  0
LINE
  8
0
 62
     0
 10
9.81989
 20
123.846
 30
0.0
 11
9.81989
 21
120.746
 31
0.0
  0
LINE
  8
0
 62
     0
 10
9.81989
 20
120.746
 30
0.0
 11
10.6192
 21
120.746
 31
0.0
  0
LINE
  8
0
 62
     0
 10
10.6192
 20
120.746
 30
0.0
 11
10.6192
 21
114.948
 31
0.0
  0
LINE
  8
0
 62
     0
 10
10.6192
 20
114.948
 30
0.0
 11
9.81989
 21
114.948
 31
0.0
  0
LINE
  8
0
 62
     0
 10
9.81989
 20
114.948
 30
0.0
 11
9.81989
 21
111.846
 31
0.0
  0
LINE
  8
0
 62
     0
 10
9.81989
 20
111.846
 30
0.0
 11
10.6192
 21
111.846
 31
0.0
  0
LINE
  8
0
 62
     0
 10
10.6192
 20
111.846
 30
0.0
 11
10.6192
 21
110.847
 31
0.0
  0
LINE
  8
0
 62
     0
 10
10.6192
 20
110.847
 30
0.0
 11
24.62
 21
110.847
 31
0.0
  0
LINE
  8
0
 62
     0
 10
24.62
 20
110.847
 30
0.0
 11
24.62
 21
111.846
 31
0.0
  0
LINE
  8
0
 62
     0
 10
24.62
 20
111.846
 30
0.0
 11
25.4207
 21
111.846
 31
0.0
  0
LINE
  8
0
 62
     0
 10
25.4207
 20
111.846
 30
0.0
 11
25.4207
 21
114.948
 31
0.0
  0
LINE
  8
0
 62
     0
 10
25.4207
 20
114.948
 30
0.0
 11
24.62
 21
114.948
 31
0.0
  0
LINE
  8
0
 62
     0
 10
24.62
 20
114.948
 30
0.0
 11
24.62
 21
120.746
 31
0.0
  0
LINE
  8
0
 62
     0
 10
24.62
 20
120.746
 30
0.0
 11
25.4207
 21
120.746
 31
0.0
  0
LINE
  8
0
 62
     0
 10
25.4207
 20
120.746
 30
0.0
 11
25.4207
 21
123.846
 31
0.0
  0
LINE
  8
0
 62
     0
 10
25.4207
 20
123.846
 30
0.0
 11
24.62
 21
123.846
 31
0.0
  0
LINE
  8
0
 62
     0
 10
24.62
 20
123.846
 30
0.0
 11
24.62
 21
124.847
 31
0.0
  0
LINE
  8
0
 62
     0
 10
24.62
 20
124.847
 30
0.0
 11
10.6192
 21
124.847
 31
0.0
  0
LINE
  8
0
 62
     0
 10
29.6706
 20
124.847
 30
0.0
 11
29.6706
 21
123.846
 31
0.0
  0
LINE
  8
0
 62
     0
 10
29.6706
 20
123.846
 30
0.0
 11
28.8699
 21
123.846
 31
0.0
  0
LINE
  8
0
 62
     0
 10
28.8699
 20
123.846
 30
0.0
 11
28.8699
 21
120.746
 31
0.0
  0
LINE
  8
0
 62
     0
 10
28.8699
 20
120.746
 30
0.0
 11
29.6706
 21
120.746
 31
0.0
  0
LINE
  8
0
 62
     0
 10
29.6706
 20
120.746
 30
0.0
 11
29.6706
 21
114.948
 31
0.0
  0
LINE
  8
0
 62
     0
 10
29.6706
 20
114.948
 30
0.0
 11
28.8699
 21
114.948
 31
0.0
  0
LINE
  8
0
 62
     0
 10
28.8699
 20
114.948
 30
0.0
 11
28.8699
 21
111.846
 31
0.0
  0
LINE
  8
0
 62
     0
 10
28.8699
 20
111.846
 30
0.0
 11
29.6706
 21
111.846
 31
0.0
  0
LINE
  8
0
 62
     0
 10
29.6706
 20
111.846
 30
0.0
 11
29.6706
 21
110.847
 31
0.0
  0
LINE
  8
0
 62
     0
 10
29.6706
 20
110.847
 30
0.0
 11
43.67
 21
110.847
 31
0.0
  0
LINE
  8
0
 62
     0
 10
43.67
 20
110.847
 30
0.0
 11
43.67
 21
111.846
 31
0.0
  0
LINE
  8
0
 62
     0
 10
43.67
 20
111.846
 30
0.0
 11
44.4708
 21
111.846
 31
0.0
  0
LINE
  8
0
 62
     0
 10
44.4708
 20
111.846
 30
0.0
 11
44.4708
 21
114.948
 31
0.0
  0
LINE
  8
0
 62
     0
 10
44.4708
 20
114.948
 30
0.0
 11
43.67
 21
114.948
 31
0.0
  0
LINE
  8
0
 62
     0
 10
43.67
 20
114.948
 30
0.0
 11
43.67
 21
120.746
 31
0.0
  0
LINE
  8
0
 62
     0
 10
43.67
 20
120.746
 30
0.0
 11
44.4708
 21
120.746
 31
0.0
  0
LINE
  8
0
 62
     0
 10
44.4708
 20
120.746
 30
0.0
 11
44.4708
 21
123.846
 31
0.0
  0
LINE
  8
0
 62
     0
 10
44.4708
 20
123.846
 30
0.0
 11
43.67
 21
123.846
 31
0.0
  0
LINE
  8
0
 62
     0
 10
43.67
 20
123.846
 30
0.0
 11
43.67
 21
124.847
 31
0.0
  0
LINE
  8
0
 62
     0
 10
43.67
 20
124.847
 30
0.0
 11
29.6706
 21
124.847
 31
0.0
  0
LINE
  8
0
 62
     0
 10
48.7204
 20
124.847
 30
0.0
 11
48.7204
 21
123.846
 31
0.0
  0
LINE
  8
0
 62
     0
 10
48.7204
 20
123.846
 30
0.0
 11
47.9199
 21
123.846
 31
0.0
  0
LINE
  8
0
 62
     0
 10
47.9199
 20
123.846
 30
0.0
 11
47.9199
 21
120.746
 31
0.0
  0
LINE
  8
0
 62
     0
 10
47.9199
 20
120.746
 30
0.0
 11
48.7204
 21
120.746
 31
0.0
  0
LINE
  8
0
 62
     0
 10
48.7204
 20
120.746
 30
0.0
 11
48.7204
 21
114.948
 31
0.0
  0
LINE
  8
0
 62
     0
 10
48.7204
 20
114.948
 30
0.0
 11
47.9199
 21
114.948
 31
0.0
  0
LINE
  8
0
 62
     0
 10
47.9199
 20
114.948
 30
0.0
 11
47.9199
 21
111.846
 31
0.0
  0
LINE
  8
0
 62
     0
 10
47.9199
 20
111.846
 30
0.0
 11
48.7204
 21
111.846
 31
0.0
  0
LINE
  8
0
 62
     0
 10
48.7204
 20
111.846
 30
0.0
 11
48.7204
 21
110.847
 31
0.0
  0
LINE
  8
0
 62
     0
 10
48.7204
 20
110.847
 30
0.0
 11
62.72
 21
110.847
 31
0.0
  0
LINE
  8
0
 62
     0
 10
62.72
 20
110.847
 30
0.0
 11
62.72
 21
111.846
 31
0.0
  0
LINE
  8
0
 62
     0
 10
62.72
 20
111.846
 30
0.0
 11
63.5208
 21
111.846
 31
0.0
  0
LINE
  8
0
 62
     0
 10
63.5208
 20
111.846
 30
0.0
 11
63.5208
 21
114.948
 31
0.0
  0
LINE
  8
0
 62
     0
 10
63.5208
 20
114.948
 30
0.0
 11
62.72
 21
114.948
 31
0.0
  0
LINE
  8
0
 62
     0
 10
62.72
 20
114.948
 30
0.0
 11
62.72
 21
120.746
 31
0.0
  0
LINE
  8
0
 62
     0
 10
62.72
 20
120.746
 30
0.0
 11
63.5208
 21
120.746
 31
0.0
  0
LINE
  8
0
 62
     0
 10
63.5208
 20
120.746
 30
0.0
 11
63.5208
 21
123.846
 31
0.0
  0
LINE
  8
0
 62
     0
 10
63.5208
 20
123.846
 30
0.0
 11
62.72
 21
123.846
 31
0.0
  0
LINE
  8
0
 62
     0
 10
62.72
 20
123.846
 30
0.0
 11
62.72
 21
124.847
 31
0.0
  0
LINE
  8
0
 62
     0
 10
62.72
 20
124.847
 30
0.0
 11
48.7204
 21
124.847
 31
0.0
  0
LINE
  8
0
 62
     0
 10
67.7704
 20
124.847
 30
0.0
 11
67.7704
 21
123.846
 31
0.0
  0
LINE
  8
0
 62
     0
 10
67.7704
 20
123.846
 30
0.0
 11
66.9699
 21
123.846
 31
0.0
  0
LINE
  8
0
 62
     0
 10
66.9699
 20
123.846
 30
0.0
 11
66.9699
 21
120.746
 31
0.0
  0
LINE
  8
0
 62
     0
 10
66.9699
 20
120.746
 30
0.0
 11
67.7704
 21
120.746
 31
0.0
  0
LINE
  8
0
 62
     0
 10
67.7704
 20
120.746
 30
0.0
 11
67.7704
 21
114.948
 31
0.0
  0
LINE
  8
0
 62
     0
 10
67.7704
 20
114.948
 30
0.0
 11
66.9699
 21
114.948
 31
0.0
  0
LINE
  8
0
 62
     0
 10
66.9699
 20
114.948
 30
0.0
 11
66.9699
 21
111.846
 31
0.0
  0
LINE
  8
0
 62
     0
 10
66.9699
 20
111.846
 30
0.0
 11
67.7704
 21
111.846
 31
0.0
  0
LINE
  8
0
 62
     0
 10
67.7704
 20
111.846
 30
0.0
 11
67.7704
 21
110.847
 31
0.0
  0
LINE
  8
0
 62
     0
 10
67.7704
 20
110.847
 30
0.0
 11
81.77
 21
110.847
 31
0.0
  0
LINE
  8
0
 62
     0
 10
81.77
 20
110.847
 30
0.0
 11
81.77
 21
111.846
 31
0.0
  0
LINE
  8
0
 62
     0
 10
81.77
 20
111.846
 30
0.0
 11
82.5708
 21
111.846
 31
0.0
  0
LINE
  8
0
 62
     0
 10
82.5708
 20
111.846
 30
0.0
 11
82.5708
 21
114.948
 31
0.0
  0
LINE
  8
0
 62
     0
 10
82.5708
 20
114.948
 30
0.0
 11
81.77
 21
114.948
 31
0.0
  0
LINE
  8
0
 62
     0
 10
81.77
 20
114.948
 30
0.0
 11
81.77
 21
120.746
 31
0.0
  0
LINE
  8
0
 62
     0
 10
81.77
 20
120.746
 30
0.0
 11
82.5708
 21
120.746
 31
0.0
  0
LINE
  8
0
 62
     0
 10
82.5708
 20
120.746
 30
0.0
 11
82.5708
 21
123.846
 31
0.0
  0
LINE
  8
0
 62
     0
 10
82.5708
 20
123.846
 30
0.0
 11
81.77
 21
123.846
 31
0.0
  0
LINE
  8
0
 62
     0
 10
81.77
 20
123.846
 30
0.0
 11
81.77
 21
124.847
 31
0.0
  0
LINE
  8
0
 62
     0
 10
81.77
 20
124.847
 30
0.0
 11
67.7704
 21
124.847
 31
0.0
  0
LINE
  8
0
 62
     0
 10
87.8018
 20
132.892
 30
0.0
 11
87.3552
 21
132.667
 31
0.0
  0
LINE
  8
0
 62
     0
 10
87.3552
 20
132.667
 30
0.0
 11
87.001
 21
132.314
 31
0.0
  0
LINE
  8
0
 62
     0
 10
87.001
 20
132.314
 30
0.0
 11
86.7752
 21
131.866
 31
0.0
  0
LINE
  8
0
 62
     0
 10
86.7752
 20
131.866
 30
0.0
 11
86.6965
 21
131.371
 31
0.0
  0
LINE
  8
0
 62
     0
 10
86.6965
 20
131.371
 30
0.0
 11
86.7752
 21
130.878
 31
0.0
  0
LINE
  8
0
 62
     0
 10
86.7752
 20
130.878
 30
0.0
 11
87.001
 21
130.431
 31
0.0
  0
LINE
  8
0
 62
     0
 10
87.001
 20
130.431
 30
0.0
 11
87.3552
 21
130.077
 31
0.0
  0
LINE
  8
0
 62
     0
 10
87.3552
 20
130.077
 30
0.0
 11
87.8018
 21
129.85
 31
0.0
  0
LINE
  8
0
 62
     0
 10
87.8018
 20
129.85
 30
0.0
 11
88.2964
 21
129.771
 31
0.0
  0
LINE
  8
0
 62
     0
 10
88.2964
 20
129.771
 30
0.0
 11
88.791
 21
129.85
 31
0.0
  0
LINE
  8
0
 62
     0
 10
88.791
 20
129.85
 30
0.0
 11
89.2362
 21
130.077
 31
0.0
  0
LINE
  8
0
 62
     0
 10
89.2362
 20
130.077
 30
0.0
 11
89.5904
 21
130.431
 31
0.0
  0
LINE
  8
0
 62
     0
 10
89.5904
 20
130.431
 30
0.0
 11
89.8179
 21
130.878
 31
0.0
  0
LINE
  8
0
 62
     0
 10
89.8179
 20
130.878
 30
0.0
 11
89.8962
 21
131.371
 31
0.0
  0
LINE
  8
0
 62
     0
 10
89.8962
 20
131.371
 30
0.0
 11
89.8179
 21
131.866
 31
0.0
  0
LINE
  8
0
 62
     0
 10
89.8179
 20
131.866
 30
0.0
 11
89.5904
 21
132.314
 31
0.0
  0
LINE
  8
0
 62
     0
 10
89.5904
 20
132.314
 30
0.0
 11
89.2362
 21
132.667
 31
0.0
  0
LINE
  8
0
 62
     0
 10
89.2362
 20
132.667
 30
0.0
 11
88.791
 21
132.892
 31
0.0
  0
LINE
  8
0
 62
     0
 10
88.791
 20
132.892
 30
0.0
 11
88.2964
 21
132.971
 31
0.0
  0
LINE
  8
0
 62
     0
 10
88.2964
 20
132.971
 30
0.0
 11
87.8018
 21
132.892
 31
0.0
  0
LINE
  8
0
 62
     0
 10
3.6008
 20
132.892
 30
0.0
 11
3.15295
 21
132.667
 31
0.0
  0
LINE
  8
0
 62
     0
 10
3.15295
 20
132.667
 30
0.0
 11
2.80017
 21
132.314
 31
0.0
  0
LINE
  8
0
 62
     0
 10
2.80017
 20
132.314
 30
0.0
 11
2.57418
 21
131.866
 31
0.0
  0
LINE
  8
0
 62
     0
 10
2.57418
 20
131.866
 30
0.0
 11
2.49425
 21
131.371
 31
0.0
  0
LINE
  8
0
 62
     0
 10
2.49425
 20
131.371
 30
0.0
 11
2.57418
 21
130.878
 31
0.0
  0
LINE
  8
0
 62
     0
 10
2.57418
 20
130.878
 30
0.0
 11
2.80017
 21
130.431
 31
0.0
  0
LINE
  8
0
 62
     0
 10
2.80017
 20
130.431
 30
0.0
 11
3.15295
 21
130.077
 31
0.0
  0
LINE
  8
0
 62
     0
 10
3.15295
 20
130.077
 30
0.0
 11
3.6008
 21
129.85
 31
0.0
  0
LINE
  8
0
 62
     0
 10
3.6008
 20
129.85
 30
0.0
 11
4.09554
 21
129.771
 31
0.0
  0
LINE
  8
0
 62
     0
 10
4.09554
 20
129.771
 30
0.0
 11
4.58886
 21
129.85
 31
0.0
  0
LINE
  8
0
 62
     0
 10
4.58886
 20
129.85
 30
0.0
 11
5.03534
 21
130.077
 31
0.0
  0
LINE
  8
0
 62
     0
 10
5.03534
 20
130.077
 30
0.0
 11
5.38949
 21
130.431
 31
0.0
  0
LINE
  8
0
 62
     0
 10
5.38949
 20
130.431
 30
0.0
 11
5.61689
 21
130.878
 31
0.0
  0
LINE
  8
0
 62
     0
 10
5.61689
 20
130.878
 30
0.0
 11
5.69542
 21
131.371
 31
0.0
  0
LINE
  8
0
 62
     0
 10
5.69542
 20
131.371
 30
0.0
 11
5.61689
 21
131.866
 31
0.0
  0
LINE
  8
0
 62
     0
 10
5.61689
 20
131.866
 30
0.0
 11
5.38949
 21
132.314
 31
0.0
  0
LINE
  8
0
 62
     0
 10
5.38949
 20
132.314
 30
0.0
 11
5.03534
 21
132.667
 31
0.0
  0
LINE
  8
0
 62
     0
 10
5.03534
 20
132.667
 30
0.0
 11
4.58886
 21
132.892
 31
0.0
  0
LINE
  8
0
 62
     0
 10
4.58886
 20
132.892
 30
0.0
 11
4.09554
 21
132.971
 31
0.0
  0
LINE
  8
0
 62
     0
 10
4.09554
 20
132.971
 30
0.0
 11
3.6008
 21
132.892
 31
0.0
  0
ENDSEC
  0
EOF
